
<svg xmlns="http://www.w3.org/2000/svg" xml:space="preserve" width="750px" height="700px" style="shape-rendering:geometricPrecision		; text-rendering:geometricPrecision; image-rendering:optimizeQuality; fill-rule:evenodd; position: absolute; clip-rule:evenodd"viewBox="0 0 750 699.999"xmlns:xlink="http://www.w3.org/1999/xlink">你的浏览器版本过低，请升级你的浏览器以获得更好的体验
   <polygon id="m_910172" class="fil" lc="290,160" points="189.405,197.752 188.406,197.752 188.406,198.751 187.406,198.751 187.406,199.752 186.405,199.752 186.405,200.752 185.405,200.752 185.405,201.75 184.406,201.75 184.406,202.752 182.405,202.752 182.405,203.752 180.405,203.752 180.405,204.75 179.405,204.75 179.405,205.752 178.406,205.752 178.406,206.752 176.405,206.752 176.405,207.75 175.406,207.75 175.406,208.752 173.405,208.752 173.405,209.752 172.406,209.752 172.406,210.75 171.405,210.75 171.405,211.752 170.405,211.752 170.405,212.752 169.406,212.752 169.406,213.751 168.405,213.751 168.405,214.752 167.405,214.752 167.405,215.752 166.406,215.752 166.406,216.751 165.405,216.751 165.405,218.751 164.405,218.751 164.405,220.752 161.406,220.752 161.406,221.751 160.406,221.751 160.406,223.752 158.406,223.752 158.406,224.751 157.406,224.751 157.406,225.752 156.405,225.752 156.405,226.752 155.406,226.752 155.406,227.751 154.406,227.751 154.406,228.752 152.406,228.752 152.406,230.752 151.406,230.752 151.406,231.752 150.405,231.752 150.405,232.75 149.406,232.75 149.406,233.752 147.405,233.752 147.405,234.752 140.406,234.752 140.406,233.752 139.406,233.752 139.406,232.75 132.405,232.75 132.405,231.752 129.405,231.752 129.405,230.752 128.405,230.752 128.405,229.752 126.405,229.752 126.405,228.752 125.405,228.752 125.405,226.752 124.406,226.752 124.406,224.751 123.405,224.751 123.405,223.752 122.405,223.752 122.405,222.751 121.406,222.751 121.406,220.752 120.405,220.752 120.405,218.751 117.405,218.751 117.405,217.752 116.406,217.752 116.406,215.752 115.406,215.752 115.406,214.752 114.405,214.752 114.405,213.751 113.406,213.751 113.406,211.752 111.405,211.752 111.405,209.752 110.406,209.752 110.406,207.75 109.406,207.75 109.406,205.752 108.405,205.752 108.405,204.75 106.406,204.75 106.406,203.752 105.405,203.752 105.405,202.752 104.406,202.752 104.406,201.75 103.406,201.75 103.406,200.752 101.406,200.752 101.406,199.752 100.406,199.752 100.406,198.751 95.4059,198.751 95.4059,199.752 93.4051,199.752 93.4051,200.752 92.4059,200.752 92.4059,201.75 91.4055,201.75 91.4055,202.752 90.4051,202.752 90.4051,203.752 89.4047,203.752 89.4047,204.75 88.4055,204.75 88.4055,210.75 87.4051,210.75 87.4051,217.752 86.4047,217.752 86.4047,219.751 85.4055,219.751 85.4055,226.752 84.4051,226.752 84.4051,232.75 83.4047,232.75 83.4047,242.752 82.4055,242.752 82.4055,243.751 81.4051,243.751 81.4051,260.752 80.4047,260.752 80.4047,280.75 79.4055,280.75 79.4055,282.751 78.4051,282.751 78.4051,303.751 79.4055,303.751 79.4055,317.751 80.4047,317.751 80.4047,353.752 81.4051,353.752 81.4051,354.751 82.4055,354.751 82.4055,360.751 83.4047,360.751 83.4047,363.752 84.4051,363.752 84.4051,367.752 85.4055,367.752 85.4055,369.751 86.4047,369.751 86.4047,373.75 87.4051,373.75 87.4051,375.751 88.4055,375.751 88.4055,378.751 89.4047,378.751 89.4047,379.752 90.4051,379.752 90.4051,382.752 91.4055,382.752 91.4055,384.75 92.4059,384.75 92.4059,386.752 93.4051,386.752 93.4051,388.752 94.4055,388.752 94.4055,390.75 95.4059,390.75 95.4059,392.752 96.4051,392.752 96.4051,393.751 97.4055,393.751 97.4055,396.751 98.4059,396.751 98.4059,398.752 99.4051,398.752 99.4051,400.752 100.406,400.752 100.406,401.751 101.406,401.751 101.406,402.751 103.406,402.751 103.406,401.751 104.406,401.751 104.406,400.752 107.406,400.752 107.406,399.751 112.406,399.751 112.406,400.752 115.406,400.752 115.406,401.751 119.405,401.751 119.405,402.751 126.405,402.751 126.405,403.752 129.405,403.752 129.405,404.751 131.405,404.751 131.405,405.751 132.405,405.751 132.405,404.751 135.405,404.751 135.405,405.751 137.405,405.751 137.405,406.752 146.406,406.752 146.406,404.751 147.405,404.751 147.405,402.751 148.406,402.751 148.406,401.751 149.406,401.751 149.406,400.752 157.406,400.752 157.406,401.751 159.405,401.751 159.405,402.751 160.406,402.751 160.406,403.752 162.405,403.752 162.405,404.751 164.405,404.751 164.405,405.751 165.405,405.751 165.405,407.751 166.406,407.751 166.406,408.752 167.405,408.752 167.405,409.752 168.405,409.752 168.405,410.751 169.406,410.751 169.406,411.752 170.405,411.752 170.405,412.752 171.405,412.752 171.405,413.751 172.406,413.751 172.406,415.75 173.405,415.75 173.405,416.751 175.406,416.751 175.406,418.75 177.405,418.75 177.405,419.751 178.406,419.751 178.406,420.751 179.405,420.751 179.405,421.75 180.405,421.75 180.405,422.752 181.406,422.752 181.406,423.751 182.405,423.751 182.405,424.75 183.405,424.75 183.405,425.752 184.406,425.752 184.406,426.751 186.405,426.751 186.405,427.752 188.406,427.752 188.406,428.752 189.405,428.752 189.405,429.75 190.406,429.75 190.406,430.752 192.405,430.752 192.405,431.752 194.406,431.752 194.406,432.75 196.406,432.75 196.406,434.752 197.406,434.752 197.406,435.75 198.405,435.75 198.405,436.752 200.406,436.752 200.406,437.752 202.406,437.752 202.406,438.75 203.406,438.75 203.406,439.752 204.405,439.752 204.405,440.752 205.406,440.752 205.406,441.751 207.405,441.751 207.405,442.752 209.406,442.752 209.406,443.752 210.405,443.752 210.405,444.751 211.406,444.751 211.406,445.752 212.405,445.752 212.405,446.751 214.406,446.751 214.406,447.751 215.405,447.751 215.405,448.752 216.405,448.752 216.405,450.751 217.406,450.751 217.406,451.752 218.405,451.752 218.405,452.751 219.405,452.751 219.405,453.752 221.405,453.752 221.405,454.752 223.406,454.752 223.406,455.751 225.405,455.751 225.405,456.752 227.405,456.752 227.405,457.752 228.405,457.752 228.405,458.751 230.405,458.751 230.405,459.751 235.406,459.751 235.406,460.75 237.405,460.75 237.405,461.751 240.405,461.751 240.405,462.751 242.406,462.751 242.406,459.751 241.406,459.751 241.406,457.752 242.406,457.752 242.406,449.751 243.405,449.751 243.405,448.752 244.406,448.752 244.406,433.752 243.405,433.752 243.405,430.752 242.406,430.752 242.406,427.752 241.406,427.752 241.406,424.75 240.405,424.75 240.405,423.751 239.406,423.751 239.406,421.75 238.406,421.75 238.406,419.751 237.405,419.751 237.405,418.75 236.406,418.75 236.406,417.751 235.406,417.751 235.406,416.751 234.405,416.751 234.405,415.75 233.406,415.75 233.406,413.751 232.406,413.751 232.406,412.752 231.405,412.752 231.405,409.752 230.405,409.752 230.405,408.752 229.406,408.752 229.406,407.751 228.405,407.751 228.405,405.751 227.405,405.751 227.405,404.751 226.406,404.751 226.406,403.752 225.405,403.752 225.405,402.751 224.405,402.751 224.405,401.751 223.406,401.751 223.406,399.751 222.405,399.751 222.405,397.752 221.405,397.752 221.405,395.752 220.406,395.752 220.406,394.752 221.405,394.752 221.405,392.752 220.406,392.752 220.406,379.752 219.405,379.752 219.405,378.751 218.405,378.751 218.405,377.752 217.406,377.752 217.406,371.751 218.405,371.751 218.405,370.75 220.406,370.75 220.406,368.752 221.405,368.752 221.405,367.752 222.405,367.752 222.405,366.752 224.405,366.752 224.405,365.751 226.406,365.751 226.406,364.752 228.405,364.752 228.405,363.752 229.406,363.752 229.406,362.751 231.405,362.751 231.405,361.752 232.406,361.752 232.406,360.751 234.405,360.751 234.405,359.751 235.406,359.751 235.406,358.752 237.405,358.752 237.405,357.751 239.406,357.751 239.406,356.751 241.406,356.751 241.406,355.752 244.406,355.752 244.406,354.751 248.406,354.751 248.406,353.752 249.405,353.752 249.405,352.752 252.405,352.752 252.405,349.752 244.406,349.752 244.406,348.751 242.406,348.751 242.406,346.752 241.406,346.752 241.406,331.75 242.406,331.75 242.406,328.75 241.406,328.75 241.406,324.752 242.406,324.752 242.406,322.75 243.405,322.75 243.405,319.752 244.406,319.752 244.406,313.752 245.406,313.752 245.406,310.752 246.405,310.752 246.405,307.752 247.406,307.752 247.406,303.751 248.406,303.751 248.406,302.752 249.405,302.752 249.405,300.75 250.406,300.75 250.406,298.752 251.406,298.752 251.406,297.75 252.405,297.75 252.405,296.752 253.406,296.752 253.406,295.752 254.406,295.752 254.406,293.752 255.405,293.752 255.405,287.752 254.406,287.752 254.406,283.75 253.406,283.75 253.406,281.752 252.405,281.752 252.405,273.752 253.406,273.752 253.406,271.752 254.406,271.752 254.406,268.752 255.405,268.752 255.405,267.751 256.406,267.751 256.406,264.751 257.405,264.751 257.405,263.751 258.405,263.751 258.405,261.751 259.406,261.751 259.406,259.752 260.405,259.752 260.405,257.752 261.405,257.752 261.405,254.752 262.406,254.752 262.406,234.752 261.405,234.752 261.405,229.752 260.405,229.752 260.405,227.751 259.406,227.751 259.406,225.752 258.405,225.752 258.405,222.751 257.405,222.751 257.405,221.751 256.406,221.751 256.406,220.752 255.405,220.752 255.405,218.751 254.406,218.751 254.406,217.752 253.406,217.752 253.406,216.751 252.405,216.751 252.405,215.752 251.406,215.752 251.406,214.752 250.406,214.752 250.406,213.751 248.406,213.751 248.406,212.752 245.406,212.752 245.406,211.752 243.405,211.752 243.405,210.75 234.405,210.75 234.405,209.752 220.406,209.752 220.406,210.75 219.405,210.75 219.405,211.752 207.405,211.752 207.405,210.75 202.406,210.75 202.406,209.752 201.405,209.752 201.405,208.752 200.406,208.752 200.406,206.752 199.406,206.752 199.406,205.752 198.405,205.752 198.405,204.75 197.406,204.75 197.406,201.75 196.406,201.75 196.406,200.752 195.405,200.752 195.405,199.752 194.406,199.752 194.406,198.751 192.405,198.751 192.405,197.752 191.406,197.752 191.406,196.75 189.405,196.75 "/>
   <polygon id="m_910153" class="fil" lc="550,480" points="491.406,500.751 488.406,500.751 488.406,501.751 485.406,501.751 485.406,502.752 484.406,502.752 484.406,503.751 482.406,503.751 482.406,504.751 480.405,504.751 480.405,505.75 476.406,505.75 476.406,506.751 474.405,506.751 474.405,507.751 472.406,507.751 472.406,508.75 470.406,508.75 470.406,509.751 457.406,509.751 457.406,508.75 451.406,508.75 451.406,517.752 450.405,517.752 450.405,519.75 448.406,519.75 448.406,520.752 445.406,520.752 445.406,519.75 443.406,519.75 443.406,518.752 438.405,518.752 438.405,517.752 434.406,517.752 434.406,516.751 431.406,516.751 431.406,515.752 429.405,515.752 429.405,516.751 416.405,516.751 416.405,517.752 412.406,517.752 412.406,518.752 408.405,518.752 408.405,519.75 406.406,519.75 406.406,520.752 399.405,520.752 399.405,521.752 398.405,521.752 398.405,522.75 388.406,522.75 388.406,523.752 385.406,523.752 385.406,524.752 382.406,524.752 382.406,525.75 379.406,525.75 379.406,526.752 369.405,526.752 369.405,527.752 367.406,527.752 367.406,528.75 362.405,528.75 362.405,530.752 361.406,530.752 361.406,532.752 360.405,532.752 360.405,536.751 359.405,536.751 359.405,538.752 358.406,538.752 358.406,545.751 357.405,545.751 357.405,547.752 356.405,547.752 356.405,548.751 355.406,548.751 355.406,550.75 354.405,550.75 354.405,551.751 353.405,551.751 353.405,552.751 352.406,552.751 352.406,554.751 351.405,554.751 351.405,555.751 350.406,555.751 350.406,556.75 348.405,556.75 348.405,557.752 347.406,557.752 347.406,558.751 345.405,558.751 345.405,559.75 344.406,559.75 344.406,560.752 343.406,560.752 343.406,561.751 340.406,561.751 340.406,562.752 339.405,562.752 339.405,563.752 338.406,563.752 338.406,564.75 336.405,564.75 336.405,565.752 333.405,565.752 333.405,566.752 331.406,566.752 331.406,567.75 330.405,567.75 330.405,568.752 328.406,568.752 328.406,569.752 327.405,569.752 327.405,570.75 325.406,570.75 325.406,571.752 324.405,571.752 324.405,572.752 322.406,572.752 322.406,573.75 316.406,573.75 316.406,574.752 313.406,574.752 313.406,575.752 312.405,575.752 312.405,576.751 299.406,576.751 299.406,577.752 297.405,577.752 297.405,578.752 296.406,578.752 296.406,579.751 294.405,579.751 294.405,580.752 293.406,580.752 293.406,581.751 292.406,581.751 292.406,582.751 291.405,582.751 291.405,583.752 290.406,583.752 290.406,584.751 289.406,584.751 289.406,586.752 288.405,586.752 288.405,588.751 287.406,588.751 287.406,589.752 286.406,589.752 286.406,592.752 285.405,592.752 285.405,596.751 284.406,596.751 284.406,598.75 303.405,598.75 303.405,599.751 308.405,599.751 308.405,600.751 310.406,600.751 310.406,601.75 312.405,601.75 312.405,602.752 316.406,602.752 316.406,603.751 320.405,603.751 320.405,604.75 324.405,604.75 324.405,605.752 327.405,605.752 327.405,606.751 330.405,606.751 330.405,607.752 335.406,607.752 335.406,608.752 341.406,608.752 341.406,609.75 383.406,609.75 383.406,608.752 412.406,608.752 412.406,607.752 418.406,607.752 418.406,606.751 427.406,606.751 427.406,605.752 431.406,605.752 431.406,604.75 433.406,604.75 433.406,603.751 434.406,603.751 434.406,602.752 436.406,602.752 436.406,601.75 437.406,601.75 437.406,600.751 439.406,600.751 439.406,599.751 440.406,599.751 440.406,598.75 442.406,598.75 442.406,597.751 443.406,597.751 443.406,595.75 444.405,595.75 444.405,594.751 446.405,594.751 446.405,593.751 448.406,593.751 448.406,592.752 450.405,592.752 450.405,591.751 453.405,591.751 453.405,590.751 457.406,590.751 457.406,589.752 459.405,589.752 459.405,588.751 462.405,588.751 462.405,589.752 464.405,589.752 464.405,588.751 475.406,588.751 475.406,589.752 478.406,589.752 478.406,590.751 482.406,590.751 482.406,591.751 485.406,591.751 485.406,592.752 487.406,592.752 487.406,593.751 490.406,593.751 490.406,594.751 491.406,594.751 491.406,595.75 492.405,595.75 492.405,596.751 493.406,596.751 493.406,597.751 494.405,597.751 494.405,598.75 495.405,598.75 495.405,599.751 496.406,599.751 496.406,600.751 497.405,600.751 497.405,602.752 498.405,602.752 498.405,603.751 499.406,603.751 499.406,604.75 500.405,604.75 500.405,605.752 501.405,605.752 501.405,606.751 502.406,606.751 502.406,607.752 503.405,607.752 503.405,608.752 504.405,608.752 504.405,609.75 505.406,609.75 505.406,611.752 506.405,611.752 506.405,612.75 507.405,612.75 507.405,614.752 508.406,614.752 508.406,617.752 509.405,617.752 509.405,620.752 510.405,620.752 510.405,625.752 511.406,625.752 511.406,628.752 512.405,628.752 512.405,631.752 513.405,631.752 513.405,635.751 514.406,635.751 514.406,639.751 515.406,639.751 515.406,641.751 516.405,641.751 516.405,644.751 517.406,644.751 517.406,650.752 518.406,650.752 518.406,656.752 519.405,656.752 519.405,661.752 520.406,661.752 520.406,668.752 521.406,668.752 521.406,672.751 522.405,672.751 522.405,675.751 523.406,675.751 523.406,677.75 524.406,677.75 524.406,678.751 525.405,678.751 525.405,679.752 526.406,679.752 526.406,681.751 527.406,681.751 527.406,682.752 530.406,682.752 530.406,683.751 531.405,683.751 531.405,684.751 533.406,684.751 533.406,685.752 536.406,685.752 536.406,686.751 539.405,686.751 539.405,687.751 541.406,687.751 541.406,688.75 546.405,688.75 546.405,689.751 548.405,689.751 548.405,690.751 565.406,690.751 565.406,689.751 567.405,689.751 567.405,688.75 572.406,688.75 572.406,687.751 575.406,687.751 575.406,686.751 576.405,686.751 576.405,685.752 577.406,685.752 577.406,684.751 579.405,684.751 579.405,683.751 581.406,683.751 581.406,682.752 583.406,682.752 583.406,681.751 584.406,681.751 584.406,680.751 585.405,680.751 585.405,679.752 587.405,679.752 587.405,678.751 588.405,678.751 588.405,677.75 589.406,677.75 589.406,676.752 590.405,676.752 590.405,675.751 591.405,675.751 591.405,674.751 593.405,674.751 593.405,673.752 594.405,673.752 594.405,672.751 595.406,672.751 595.406,671.752 596.405,671.752 596.405,670.752 597.405,670.752 597.405,669.751 599.405,669.751 599.405,668.752 601.406,668.752 601.406,667.752 602.405,667.752 602.405,666.751 603.405,666.751 603.405,665.752 604.406,665.752 604.406,664.752 605.405,664.752 605.405,663.75 606.405,663.75 606.405,662.752 607.406,662.752 607.406,660.75 608.406,660.75 608.406,659.752 609.405,659.752 609.405,658.752 610.406,658.752 610.406,657.75 611.406,657.75 611.406,656.752 612.405,656.752 612.405,655.752 613.406,655.752 613.406,653.752 614.406,653.752 614.406,652.752 615.405,652.752 615.405,651.751 616.406,651.751 616.406,650.752 617.406,650.752 617.406,649.75 618.405,649.75 618.405,648.751 619.406,648.751 619.406,646.75 620.406,646.75 620.406,645.751 621.405,645.751 621.405,643.75 622.406,643.75 622.406,642.751 623.406,642.751 623.406,640.75 624.405,640.75 624.405,638.751 625.406,638.751 625.406,637.752 626.406,637.752 626.406,635.751 627.405,635.751 627.405,633.751 628.406,633.751 628.406,631.752 629.406,631.752 629.406,627.751 630.405,627.751 630.405,625.752 631.406,625.752 631.406,620.752 632.405,620.752 632.405,616.752 633.405,616.752 633.405,613.752 634.406,613.752 634.406,611.752 635.405,611.752 635.405,605.752 636.405,605.752 636.405,581.751 635.405,581.751 635.405,576.751 634.406,576.751 634.406,571.752 633.405,571.752 633.405,569.752 632.405,569.752 632.405,566.752 631.406,566.752 631.406,564.75 630.405,564.75 630.405,562.752 629.406,562.752 629.406,559.75 628.406,559.75 628.406,558.751 627.405,558.751 627.405,557.752 626.406,557.752 626.406,556.75 623.406,556.75 623.406,555.751 622.406,555.751 622.406,554.751 621.405,554.751 621.405,553.75 617.406,553.75 617.406,552.751 616.406,552.751 616.406,551.751 613.406,551.751 613.406,550.75 610.406,550.75 610.406,549.751 604.406,549.751 604.406,548.751 599.405,548.751 599.405,547.752 594.405,547.752 594.405,546.751 583.406,546.751 583.406,545.751 578.406,545.751 578.406,544.752 573.405,544.752 573.405,543.752 570.405,543.752 570.405,542.751 562.406,542.751 562.406,541.752 559.406,541.752 559.406,540.751 554.405,540.751 554.405,539.751 551.405,539.751 551.405,538.752 550.406,538.752 550.406,537.751 549.405,537.751 549.405,536.751 547.406,536.751 547.406,535.752 545.405,535.752 545.405,534.751 544.406,534.751 544.406,533.752 541.406,533.752 541.406,532.752 538.406,532.752 538.406,531.751 537.405,531.751 537.405,530.752 534.405,530.752 534.405,529.752 533.406,529.752 533.406,528.75 531.405,528.75 531.405,527.752 528.405,527.752 528.405,526.752 527.406,526.752 527.406,525.75 526.406,525.75 526.406,524.752 525.405,524.752 525.405,523.752 524.406,523.752 524.406,522.75 523.406,522.75 523.406,521.752 522.405,521.752 522.405,520.752 521.406,520.752 521.406,518.752 520.406,518.752 520.406,517.752 519.405,517.752 519.405,516.751 518.406,516.751 518.406,515.752 517.406,515.752 517.406,514.75 515.406,514.75 515.406,513.751 514.406,513.751 514.406,512.752 512.405,512.752 512.405,511.75 511.406,511.75 511.406,510.751 510.405,510.751 510.405,508.75 508.406,508.75 508.406,507.751 507.405,507.751 507.405,506.751 506.405,506.751 506.405,505.75 505.406,505.75 505.406,504.751 504.405,504.751 504.405,503.751 503.405,503.751 503.405,502.752 501.405,502.752 501.405,500.751 498.405,500.751 498.405,499.752 491.406,499.752 "/>
   <polygon id="m_910173" class="fil" lc="440,335" points="256.406,352.752 255.405,352.752 255.405,353.752 254.406,353.752 254.406,354.751 253.406,354.751 253.406,355.752 250.406,355.752 250.406,356.751 248.406,356.751 248.406,357.751 245.406,357.751 245.406,358.752 242.406,358.752 242.406,359.751 240.405,359.751 240.405,360.751 239.406,360.751 239.406,361.752 236.406,361.752 236.406,362.751 235.406,362.751 235.406,363.752 233.406,363.752 233.406,364.752 232.406,364.752 232.406,365.751 230.405,365.751 230.405,366.752 229.406,366.752 229.406,367.752 227.405,367.752 227.405,368.752 225.405,368.752 225.405,369.751 223.406,369.751 223.406,370.75 222.405,370.75 222.405,372.751 221.405,372.751 221.405,373.75 220.406,373.75 220.406,376.75 221.405,376.75 221.405,377.752 222.405,377.752 222.405,378.751 223.406,378.751 223.406,392.752 224.405,392.752 224.405,396.751 225.405,396.751 225.405,398.752 226.406,398.752 226.406,400.752 228.405,400.752 228.405,401.751 229.406,401.751 229.406,402.751 230.405,402.751 230.405,404.751 231.405,404.751 231.405,405.751 232.406,405.751 232.406,407.751 234.405,407.751 234.405,411.752 235.406,411.752 235.406,412.752 236.406,412.752 236.406,413.751 237.405,413.751 237.405,415.75 238.406,415.75 238.406,416.751 239.406,416.751 239.406,417.751 240.405,417.751 240.405,418.75 241.406,418.75 241.406,420.751 242.406,420.751 242.406,422.752 243.405,422.752 243.405,423.751 244.406,423.751 244.406,426.751 245.406,426.751 245.406,429.75 246.405,429.75 246.405,432.75 247.406,432.75 247.406,449.751 246.405,449.751 246.405,450.751 245.406,450.751 245.406,461.751 246.405,461.751 246.405,462.751 247.406,462.751 247.406,464.751 248.406,464.751 248.406,465.751 249.405,465.751 249.405,475.752 250.406,475.752 250.406,477.75 251.406,477.75 251.406,478.752 253.406,478.752 253.406,479.752 254.406,479.752 254.406,480.75 256.406,480.75 256.406,481.752 257.405,481.752 257.405,482.752 258.405,482.752 258.405,483.75 259.406,483.75 259.406,485.752 260.405,485.752 260.405,486.751 261.405,486.751 261.405,488.752 262.406,488.752 262.406,489.751 263.405,489.751 263.405,491.751 264.405,491.751 264.405,493.752 265.406,493.752 265.406,496.752 266.405,496.752 266.405,498.752 267.405,498.752 267.405,499.752 268.406,499.752 268.406,505.75 269.405,505.75 269.405,507.751 270.405,507.751 270.405,510.751 271.406,510.751 271.406,512.752 272.405,512.752 272.405,513.751 273.405,513.751 273.405,514.75 274.406,514.75 274.406,515.752 276.405,515.752 276.405,516.751 278.405,516.751 278.405,517.752 279.405,517.752 279.405,518.752 282.405,518.752 282.405,519.75 283.406,519.75 283.406,520.752 285.405,520.752 285.405,521.752 287.406,521.752 287.406,522.75 288.405,522.75 288.405,523.752 290.406,523.752 290.406,524.752 291.405,524.752 291.405,525.75 293.406,525.75 293.406,526.752 294.405,526.752 294.405,527.752 296.406,527.752 296.406,528.75 297.405,528.75 297.405,529.752 299.406,529.752 299.406,530.752 300.405,530.752 300.405,531.751 301.406,531.751 301.406,532.752 303.405,532.752 303.405,533.752 305.405,533.752 305.405,534.751 306.405,534.751 306.405,535.752 308.405,535.752 308.405,536.751 311.405,536.751 311.405,537.751 312.405,537.751 312.405,538.752 314.405,538.752 314.405,539.751 315.405,539.751 315.405,540.751 317.405,540.751 317.405,541.752 319.406,541.752 319.406,542.751 329.406,542.751 329.406,541.752 331.406,541.752 331.406,540.751 333.405,540.751 333.405,539.751 334.406,539.751 334.406,538.752 335.406,538.752 335.406,537.751 337.406,537.751 337.406,536.751 339.405,536.751 339.405,535.752 343.406,535.752 343.406,534.751 344.406,534.751 344.406,533.752 347.406,533.752 347.406,532.752 349.406,532.752 349.406,531.751 351.405,531.751 351.405,530.752 353.405,530.752 353.405,529.752 354.405,529.752 354.405,528.75 356.405,528.75 356.405,527.752 357.405,527.752 357.405,526.752 360.405,526.752 360.405,525.75 366.405,525.75 366.405,524.752 368.405,524.752 368.405,523.752 379.406,523.752 379.406,522.75 382.406,522.75 382.406,521.752 385.406,521.752 385.406,520.752 388.406,520.752 388.406,519.75 397.406,519.75 397.406,518.752 398.405,518.752 398.405,517.752 405.405,517.752 405.405,516.751 407.405,516.751 407.405,515.752 412.406,515.752 412.406,514.75 415.406,514.75 415.406,513.751 424.406,513.751 424.406,512.752 425.406,512.752 425.406,513.751 429.405,513.751 429.405,512.752 432.405,512.752 432.405,513.751 434.406,513.751 434.406,514.75 439.406,514.75 439.406,515.752 444.405,515.752 444.405,516.751 445.406,516.751 445.406,517.752 447.405,517.752 447.405,516.751 448.406,516.751 448.406,509.751 447.405,509.751 447.405,508.75 446.405,508.75 446.405,505.75 444.405,505.75 444.405,504.751 443.406,504.751 443.406,503.751 442.406,503.751 442.406,502.752 441.405,502.752 441.405,501.751 440.406,501.751 440.406,500.751 439.406,500.751 439.406,498.752 438.405,498.752 438.405,497.751 437.406,497.751 437.406,495.751 436.406,495.751 436.406,478.752 437.406,478.752 437.406,476.752 438.405,476.752 438.405,475.752 439.406,475.752 439.406,473.752 440.406,473.752 440.406,472.752 441.405,472.752 441.405,467.752 442.406,467.752 442.406,458.751 441.405,458.751 441.405,452.751 442.406,452.751 442.406,449.751 443.406,449.751 443.406,442.752 444.405,442.752 444.405,438.75 445.406,438.75 445.406,436.752 446.405,436.752 446.405,434.752 447.405,434.752 447.405,431.752 448.406,431.752 448.406,429.75 449.405,429.75 449.405,427.752 450.405,427.752 450.405,424.75 451.406,424.75 451.406,423.751 452.405,423.751 452.405,420.751 453.405,420.751 453.405,414.751 454.406,414.751 454.406,410.751 453.405,410.751 453.405,409.752 451.406,409.752 451.406,410.751 429.405,410.751 429.405,409.752 422.406,409.752 422.406,407.751 421.406,407.751 421.406,406.752 419.405,406.752 419.405,405.751 418.406,405.751 418.406,404.751 416.405,404.751 416.405,403.752 414.405,403.752 414.405,402.751 413.405,402.751 413.405,401.751 412.406,401.751 412.406,400.752 411.405,400.752 411.405,399.751 410.405,399.751 410.405,398.752 403.406,398.752 403.406,397.752 401.405,397.752 401.405,398.752 398.405,398.752 398.405,397.752 397.406,397.752 397.406,396.751 396.405,396.751 396.405,395.752 395.406,395.752 395.406,394.752 394.406,394.752 394.406,392.752 393.405,392.752 393.405,390.75 392.406,390.75 392.406,389.752 391.406,389.752 391.406,388.752 390.405,388.752 390.405,387.75 388.406,387.75 388.406,385.752 387.405,385.752 387.405,384.75 386.406,384.75 386.406,383.752 385.406,383.752 385.406,381.751 384.405,381.751 384.405,380.752 383.406,380.752 383.406,379.752 382.406,379.752 382.406,377.752 381.405,377.752 381.405,376.75 363.405,376.75 363.405,377.752 360.405,377.752 360.405,376.75 358.406,376.75 358.406,377.752 353.405,377.752 353.405,378.751 348.405,378.751 348.405,379.752 343.406,379.752 343.406,380.752 342.405,380.752 342.405,381.751 341.406,381.751 341.406,382.752 340.406,382.752 340.406,383.752 338.406,383.752 338.406,384.75 336.405,384.75 336.405,385.752 334.406,385.752 334.406,386.752 328.406,386.752 328.406,385.752 326.406,385.752 326.406,383.752 325.406,383.752 325.406,382.752 324.405,382.752 324.405,381.751 323.405,381.751 323.405,380.752 322.406,380.752 322.406,379.752 321.405,379.752 321.405,378.751 320.405,378.751 320.405,377.752 319.406,377.752 319.406,376.75 318.405,376.75 318.405,375.751 317.405,375.751 317.405,374.751 316.406,374.751 316.406,373.75 315.405,373.75 315.405,372.751 314.405,372.751 314.405,371.751 313.406,371.751 313.406,370.75 312.405,370.75 312.405,369.751 311.405,369.751 311.405,368.752 310.406,368.752 310.406,367.752 309.405,367.752 309.405,366.752 308.405,366.752 308.405,365.751 307.406,365.751 307.406,364.752 306.405,364.752 306.405,363.752 303.405,363.752 303.405,362.751 301.406,362.751 301.406,361.752 299.406,361.752 299.406,360.751 294.405,360.751 294.405,359.751 290.406,359.751 290.406,358.752 287.406,358.752 287.406,357.751 282.405,357.751 282.405,356.751 279.405,356.751 279.405,355.752 277.406,355.752 277.406,354.751 274.406,354.751 274.406,353.752 271.406,353.752 271.406,352.752 266.405,352.752 266.405,351.751 256.406,351.751 "/>
   <polygon id="m_910154" class="fil" lc="450,530" points="548.405,382.752 547.406,382.752 547.406,383.752 545.405,383.752 545.405,384.75 544.406,384.75 544.406,385.752 543.405,385.752 543.405,386.752 542.405,386.752 542.405,387.75 541.406,387.75 541.406,388.752 540.405,388.752 540.405,389.752 539.405,389.752 539.405,390.75 538.406,390.75 538.406,391.752 537.405,391.752 537.405,392.752 536.406,392.752 536.406,394.752 535.406,394.752 535.406,395.752 533.406,395.752 533.406,396.751 531.405,396.751 531.405,397.752 530.406,397.752 530.406,398.752 529.406,398.752 529.406,399.751 528.405,399.751 528.405,400.752 513.405,400.752 513.405,399.751 503.405,399.751 503.405,400.752 496.406,400.752 496.406,401.751 493.406,401.751 493.406,402.751 492.405,402.751 492.405,403.752 488.406,403.752 488.406,404.751 487.406,404.751 487.406,405.751 459.405,405.751 459.405,406.752 458.405,406.752 458.405,407.751 457.406,407.751 457.406,414.751 456.405,414.751 456.405,421.75 455.405,421.75 455.405,424.75 454.406,424.75 454.406,425.752 453.405,425.752 453.405,427.752 452.405,427.752 452.405,431.752 451.406,431.752 451.406,432.75 450.405,432.75 450.405,436.752 449.405,436.752 449.405,438.75 448.406,438.75 448.406,439.752 447.405,439.752 447.405,443.752 446.405,443.752 446.405,449.751 445.406,449.751 445.406,453.752 444.405,453.752 444.405,457.752 445.406,457.752 445.406,467.752 444.405,467.752 444.405,473.752 443.406,473.752 443.406,474.75 442.406,474.75 442.406,476.752 441.405,476.752 441.405,477.75 440.406,477.75 440.406,479.752 439.406,479.752 439.406,494.751 440.406,494.751 440.406,495.751 441.405,495.751 441.405,497.751 442.406,497.751 442.406,499.752 443.406,499.752 443.406,500.751 445.406,500.751 445.406,502.752 447.405,502.752 447.405,503.751 448.406,503.751 448.406,504.751 449.405,504.751 449.405,505.75 458.405,505.75 458.405,506.751 469.406,506.751 469.406,505.75 471.405,505.75 471.405,504.751 474.405,504.751 474.405,503.751 476.406,503.751 476.406,502.752 479.406,502.752 479.406,501.751 481.406,501.751 481.406,500.751 483.405,500.751 483.405,499.752 484.406,499.752 484.406,498.752 487.406,498.752 487.406,497.751 490.406,497.751 490.406,496.752 498.405,496.752 498.405,497.751 502.406,497.751 502.406,498.752 503.405,498.752 503.405,500.751 505.406,500.751 505.406,501.751 506.405,501.751 506.405,502.752 507.405,502.752 507.405,503.751 508.406,503.751 508.406,504.751 510.405,504.751 510.405,505.75 511.406,505.75 511.406,506.751 512.405,506.751 512.405,507.751 513.405,507.751 513.405,509.751 515.406,509.751 515.406,510.751 516.405,510.751 516.405,511.75 518.406,511.75 518.406,512.752 519.405,512.752 519.405,513.751 520.406,513.751 520.406,514.75 521.406,514.75 521.406,515.752 522.405,515.752 522.405,516.751 523.406,516.751 523.406,517.752 524.406,517.752 524.406,519.75 525.405,519.75 525.405,520.752 526.406,520.752 526.406,521.752 527.406,521.752 527.406,522.75 528.405,522.75 528.405,523.752 529.406,523.752 529.406,524.752 532.406,524.752 532.406,525.75 534.405,525.75 534.405,526.752 535.406,526.752 535.406,527.752 537.405,527.752 537.405,528.75 539.405,528.75 539.405,529.752 541.406,529.752 541.406,530.752 544.406,530.752 544.406,531.751 546.405,531.751 546.405,532.752 548.405,532.752 548.405,533.752 549.405,533.752 549.405,534.751 551.405,534.751 551.405,535.752 552.405,535.752 552.405,536.751 555.405,536.751 555.405,537.751 559.406,537.751 559.406,538.752 562.406,538.752 562.406,539.751 571.406,539.751 571.406,540.751 573.405,540.751 573.405,541.752 575.406,541.752 575.406,540.751 576.405,540.751 576.405,541.752 579.405,541.752 579.405,542.751 584.406,542.751 584.406,543.752 593.405,543.752 593.405,544.752 600.405,544.752 600.405,545.751 604.406,545.751 604.406,546.751 611.406,546.751 611.406,547.752 613.406,547.752 613.406,548.751 616.406,548.751 616.406,549.751 618.405,549.751 618.405,550.75 623.406,550.75 623.406,548.751 622.406,548.751 622.406,546.751 621.405,546.751 621.405,544.752 620.406,544.752 620.406,541.752 619.406,541.752 619.406,539.751 618.405,539.751 618.405,537.751 617.406,537.751 617.406,535.752 616.406,535.752 616.406,533.752 615.405,533.752 615.405,530.752 614.406,530.752 614.406,528.75 613.406,528.75 613.406,526.752 612.405,526.752 612.405,521.752 611.406,521.752 611.406,508.75 610.406,508.75 610.406,487.752 611.406,487.752 611.406,480.75 612.405,480.75 612.405,469.75 613.406,469.75 613.406,457.752 614.406,457.752 614.406,454.752 613.406,454.752 613.406,452.751 611.406,452.751 611.406,450.751 610.406,450.751 610.406,448.752 609.405,448.752 609.405,447.751 608.406,447.751 608.406,444.751 607.406,444.751 607.406,441.751 606.405,441.751 606.405,439.752 605.405,439.752 605.405,437.752 604.406,437.752 604.406,436.752 603.405,436.752 603.405,434.752 602.405,434.752 602.405,433.752 601.406,433.752 601.406,431.752 600.405,431.752 600.405,429.75 599.405,429.75 599.405,427.752 598.406,427.752 598.406,426.751 597.405,426.751 597.405,423.751 596.405,423.751 596.405,420.751 595.406,420.751 595.406,419.751 594.405,419.751 594.405,418.75 593.405,418.75 593.405,414.751 592.406,414.751 592.406,413.751 591.405,413.751 591.405,412.752 590.405,412.752 590.405,411.752 589.406,411.752 589.406,410.751 588.405,410.751 588.405,408.752 587.405,408.752 587.405,407.751 586.406,407.751 586.406,406.752 585.405,406.752 585.405,405.751 584.406,405.751 584.406,404.751 583.406,404.751 583.406,402.751 582.405,402.751 582.405,401.751 581.406,401.751 581.406,400.752 579.405,400.752 579.405,399.751 578.406,399.751 578.406,398.752 577.406,398.752 577.406,397.752 576.405,397.752 576.405,395.752 575.406,395.752 575.406,394.752 573.405,394.752 573.405,393.751 571.406,393.751 571.406,392.752 569.406,392.752 569.406,391.752 568.406,391.752 568.406,390.75 567.405,390.75 567.405,389.752 565.406,389.752 565.406,388.752 561.405,388.752 561.405,387.75 557.405,387.75 557.405,386.752 555.405,386.752 555.405,385.752 553.406,385.752 553.406,384.75 552.405,384.75 552.405,383.752 551.405,383.752 551.405,382.752 550.406,382.752 550.406,381.751 548.405,381.751 "/>
   <polygon id="m_910171" class="fil" lc="130,150" points="148.406,4.75039 147.405,4.75039 147.405,5.75197 145.406,5.75197 145.406,6.75236 144.405,6.75236 144.405,7.75039 143.406,7.75039 143.406,8.75197 142.406,8.75197 142.406,9.75236 141.405,9.75236 141.405,10.7504 139.406,10.7504 139.406,11.752 138.405,11.752 138.405,12.7524 132.405,12.7524 132.405,13.7504 131.405,13.7504 131.405,14.752 130.406,14.752 130.406,15.7524 128.405,15.7524 128.405,16.7516 127.406,16.7516 127.406,17.752 125.405,17.752 125.405,19.7516 124.406,19.7516 124.406,20.752 123.405,20.752 123.405,21.75 122.405,21.75 122.405,23.752 121.406,23.752 121.406,24.75 120.405,24.75 120.405,26.752 119.405,26.752 119.405,28.7516 118.406,28.7516 118.406,30.7512 117.405,30.7512 117.405,31.7516 116.406,31.7516 116.406,33.7512 115.406,33.7512 115.406,35.752 114.405,35.752 114.405,38.7508 113.406,38.7508 113.406,40.7516 112.406,40.7516 112.406,43.7516 111.405,43.7516 111.405,44.7508 110.406,44.7508 110.406,46.7516 109.406,46.7516 109.406,48.7524 108.405,48.7524 108.405,51.7524 107.406,51.7524 107.406,53.752 106.406,53.752 106.406,55.7504 105.405,55.7504 105.405,57.7524 104.406,57.7524 104.406,59.752 103.406,59.752 103.406,62.752 102.405,62.752 102.405,67.7516 101.406,67.7516 101.406,70.7516 100.406,70.7516 100.406,74.752 99.4051,74.752 99.4051,77.752 98.4059,77.752 98.4059,88.7516 97.4055,88.7516 97.4055,123.751 98.4059,123.751 98.4059,128.751 99.4051,128.751 99.4051,136.752 100.406,136.752 100.406,169.752 99.4051,169.752 99.4051,171.751 98.4059,171.751 98.4059,172.752 97.4055,172.752 97.4055,177.751 96.4051,177.751 96.4051,180.752 95.4059,180.752 95.4059,182.751 94.4055,182.751 94.4055,183.752 93.4051,183.752 93.4051,188.752 92.4059,188.752 92.4059,191.752 91.4055,191.752 91.4055,197.752 93.4051,197.752 93.4051,196.75 95.4059,196.75 95.4059,195.751 101.406,195.751 101.406,196.75 103.406,196.75 103.406,198.751 105.405,198.751 105.405,199.752 106.406,199.752 106.406,200.752 107.406,200.752 107.406,201.75 108.405,201.75 108.405,202.752 110.406,202.752 110.406,203.752 111.405,203.752 111.405,204.75 112.406,204.75 112.406,207.75 113.406,207.75 113.406,209.752 114.405,209.752 114.405,210.75 115.406,210.75 115.406,211.752 116.406,211.752 116.406,212.752 117.405,212.752 117.405,213.751 118.406,213.751 118.406,214.752 119.405,214.752 119.405,215.752 120.405,215.752 120.405,216.751 121.406,216.751 121.406,217.752 122.405,217.752 122.405,218.751 123.405,218.751 123.405,219.751 124.406,219.751 124.406,221.751 125.405,221.751 125.405,222.751 126.405,222.751 126.405,223.752 127.406,223.752 127.406,226.752 128.405,226.752 128.405,227.751 130.406,227.751 130.406,228.752 131.405,228.752 131.405,229.752 139.406,229.752 139.406,230.752 141.405,230.752 141.405,231.752 147.405,231.752 147.405,230.752 148.406,230.752 148.406,229.752 149.406,229.752 149.406,228.752 150.405,228.752 150.405,226.752 151.406,226.752 151.406,225.752 153.405,225.752 153.405,224.751 155.406,224.751 155.406,222.751 156.405,222.751 156.405,221.751 157.406,221.751 157.406,220.752 158.406,220.752 158.406,219.751 159.405,219.751 159.405,218.751 161.406,218.751 161.406,217.752 162.405,217.752 162.405,216.751 163.406,216.751 163.406,214.752 164.405,214.752 164.405,213.751 165.405,213.751 165.405,212.752 166.406,212.752 166.406,211.752 167.405,211.752 167.405,210.75 168.405,210.75 168.405,209.752 169.406,209.752 169.406,208.752 170.405,208.752 170.405,207.75 172.406,207.75 172.406,206.752 173.405,206.752 173.405,205.752 174.405,205.752 174.405,204.75 175.406,204.75 175.406,203.752 177.405,203.752 177.405,202.752 178.406,202.752 178.406,201.75 179.405,201.75 179.405,200.752 182.405,200.752 182.405,199.752 183.405,199.752 183.405,198.751 184.406,198.751 184.406,197.752 185.405,197.752 185.405,196.75 186.405,196.75 186.405,195.751 187.406,195.751 187.406,194.752 188.406,194.752 188.406,193.75 189.405,193.75 189.405,192.752 190.406,192.752 190.406,183.752 191.406,183.752 191.406,181.752 192.405,181.752 192.405,180.752 193.406,180.752 193.406,179.751 194.406,179.751 194.406,178.752 196.406,178.752 196.406,177.751 198.405,177.751 198.405,176.751 199.406,176.751 199.406,175.752 201.405,175.752 201.405,174.751 202.406,174.751 202.406,173.751 203.406,173.751 203.406,172.752 204.405,172.752 204.405,171.751 206.406,171.751 206.406,170.752 207.405,170.752 207.405,168.751 208.406,168.751 208.406,167.752 209.406,167.752 209.406,166.752 210.405,166.752 210.405,164.752 211.406,164.752 211.406,161.752 212.405,161.752 212.405,157.752 213.405,157.752 213.405,143.752 214.406,143.752 214.406,142.75 215.405,142.75 215.405,139.752 216.405,139.752 216.405,137.751 217.406,137.751 217.406,135.752 218.405,135.752 218.405,133.752 219.405,133.752 219.405,131.751 220.406,131.751 220.406,128.751 221.405,128.751 221.405,126.751 222.405,126.751 222.405,122.752 220.406,122.752 220.406,121.752 216.405,121.752 216.405,120.75 214.406,120.75 214.406,119.752 212.405,119.752 212.405,118.752 211.406,118.752 211.406,117.75 210.405,117.75 210.405,116.752 209.406,116.752 209.406,115.752 208.406,115.752 208.406,114.75 207.405,114.75 207.405,113.752 206.406,113.752 206.406,112.752 205.406,112.752 205.406,111.75 204.405,111.75 204.405,109.752 203.406,109.752 203.406,108.751 202.406,108.751 202.406,105.752 201.405,105.752 201.405,104.752 200.406,104.752 200.406,102.752 199.406,102.752 199.406,99.7524 198.405,99.7524 198.405,97.7504 197.406,97.7504 197.406,94.7516 196.406,94.7516 196.406,91.7516 195.405,91.7516 195.405,90.7524 194.406,90.7524 194.406,88.7516 193.406,88.7516 193.406,84.7512 192.405,84.7512 192.405,82.7516 191.406,82.7516 191.406,79.7516 190.406,79.7516 190.406,76.7516 189.405,76.7516 189.405,73.7516 188.406,73.7516 188.406,70.7516 187.406,70.7516 187.406,66.75 186.405,66.75 186.405,64.7516 185.405,64.7516 185.405,59.752 184.406,59.752 184.406,57.7524 183.405,57.7524 183.405,55.7504 182.405,55.7504 182.405,53.752 181.406,53.752 181.406,50.752 180.405,50.752 180.405,47.7508 179.405,47.7508 179.405,45.7524 178.406,45.7524 178.406,42.7512 177.405,42.7512 177.405,39.7512 176.405,39.7512 176.405,37.7516 175.406,37.7516 175.406,35.752 174.405,35.752 174.405,34.7516 173.405,34.7516 173.405,32.752 172.406,32.752 172.406,31.7516 171.405,31.7516 171.405,28.7516 170.405,28.7516 170.405,26.752 169.406,26.752 169.406,24.75 168.405,24.75 168.405,23.752 167.405,23.752 167.405,21.75 166.406,21.75 166.406,19.7516 165.405,19.7516 165.405,18.7524 164.405,18.7524 164.405,17.752 163.406,17.752 163.406,15.7524 162.405,15.7524 162.405,13.7504 161.406,13.7504 161.406,11.752 160.406,11.752 160.406,10.7504 159.405,10.7504 159.405,9.75236 158.406,9.75236 158.406,8.75197 157.406,8.75197 157.406,7.75039 156.405,7.75039 156.405,6.75236 154.406,6.75236 154.406,5.75197 153.405,5.75197 153.405,4.75039 150.405,4.75039 150.405,3.75236 148.406,3.75236 "/>
   <polygon id="m_910150" class="fil" lc="290,305" points="360.405,203.752 358.406,203.752 358.406,204.75 357.405,204.75 357.405,205.752 355.406,205.752 355.406,206.752 354.405,206.752 354.405,207.75 353.405,207.75 353.405,208.752 351.405,208.752 351.405,209.752 350.406,209.752 350.406,211.752 348.405,211.752 348.405,212.752 346.406,212.752 346.406,213.751 345.405,213.751 345.405,214.752 343.406,214.752 343.406,215.752 341.406,215.752 341.406,216.751 339.405,216.751 339.405,217.752 337.406,217.752 337.406,218.751 335.406,218.751 335.406,219.751 334.406,219.751 334.406,220.752 332.406,220.752 332.406,221.751 328.406,221.751 328.406,222.751 327.405,222.751 327.405,223.752 325.406,223.752 325.406,224.751 320.405,224.751 320.405,225.752 317.405,225.752 317.405,226.752 316.406,226.752 316.406,227.751 315.405,227.751 315.405,228.752 312.405,228.752 312.405,229.752 310.406,229.752 310.406,230.752 307.406,230.752 307.406,231.752 304.406,231.752 304.406,232.75 302.406,232.75 302.406,233.752 300.405,233.752 300.405,234.752 288.405,234.752 288.405,235.75 286.406,235.75 286.406,236.752 284.406,236.752 284.406,237.752 279.405,237.752 279.405,236.752 277.406,236.752 277.406,235.75 276.405,235.75 276.405,234.752 275.405,234.752 275.405,233.752 274.406,233.752 274.406,232.75 273.405,232.75 273.405,231.752 272.405,231.752 272.405,230.752 271.406,230.752 271.406,229.752 270.405,229.752 270.405,228.752 269.405,228.752 269.405,227.751 268.406,227.751 268.406,226.752 266.405,226.752 266.405,225.752 263.405,225.752 263.405,229.752 264.405,229.752 264.405,234.752 265.406,234.752 265.406,255.75 264.405,255.75 264.405,257.752 263.405,257.752 263.405,259.752 262.406,259.752 262.406,261.751 261.405,261.751 261.405,263.751 260.405,263.751 260.405,265.752 259.406,265.752 259.406,268.752 258.405,268.752 258.405,270.752 257.405,270.752 257.405,271.752 256.406,271.752 256.406,273.752 255.405,273.752 255.405,280.75 256.406,280.75 256.406,282.751 257.405,282.751 257.405,286.75 258.405,286.75 258.405,294.75 257.405,294.75 257.405,296.752 256.406,296.752 256.406,297.75 255.405,297.75 255.405,298.752 254.406,298.752 254.406,299.752 253.406,299.752 253.406,301.752 252.405,301.752 252.405,303.751 251.406,303.751 251.406,304.752 250.406,304.752 250.406,308.751 249.405,308.751 249.405,311.751 248.406,311.751 248.406,314.751 247.406,314.751 247.406,320.752 246.405,320.752 246.405,323.752 245.406,323.752 245.406,325.75 244.406,325.75 244.406,328.75 245.406,328.75 245.406,331.75 244.406,331.75 244.406,345.75 245.406,345.75 245.406,346.752 257.405,346.752 257.405,347.752 258.405,347.752 258.405,348.751 260.405,348.751 260.405,347.752 261.405,347.752 261.405,348.751 267.405,348.751 267.405,349.752 271.406,349.752 271.406,350.752 276.405,350.752 276.405,351.751 278.405,351.751 278.405,352.752 280.406,352.752 280.406,353.752 283.406,353.752 283.406,354.751 288.405,354.751 288.405,355.752 292.406,355.752 292.406,356.751 295.406,356.751 295.406,357.751 299.406,357.751 299.406,358.752 301.406,358.752 301.406,359.751 304.406,359.751 304.406,360.751 307.406,360.751 307.406,361.752 308.405,361.752 308.405,362.751 309.405,362.751 309.405,363.752 310.406,363.752 310.406,364.752 311.405,364.752 311.405,365.751 312.405,365.751 312.405,366.752 313.406,366.752 313.406,367.752 315.405,367.752 315.405,368.752 316.406,368.752 316.406,369.751 317.405,369.751 317.405,370.75 318.405,370.75 318.405,371.751 319.406,371.751 319.406,373.75 320.405,373.75 320.405,374.751 321.405,374.751 321.405,375.751 323.405,375.751 323.405,377.752 325.406,377.752 325.406,378.751 326.406,378.751 326.406,380.752 327.405,380.752 327.405,381.751 328.406,381.751 328.406,382.752 331.406,382.752 331.406,383.752 333.405,383.752 333.405,382.752 335.406,382.752 335.406,381.751 337.406,381.751 337.406,380.752 339.405,380.752 339.405,379.752 340.406,379.752 340.406,378.751 341.406,378.751 341.406,377.752 343.406,377.752 343.406,376.75 347.406,376.75 347.406,375.751 351.405,375.751 351.405,374.751 352.406,374.751 352.406,373.75 356.405,373.75 356.405,374.751 358.406,374.751 358.406,373.75 379.406,373.75 379.406,371.751 378.405,371.751 378.405,370.75 377.406,370.75 377.406,368.752 376.406,368.752 376.406,364.752 375.405,364.752 375.405,360.751 374.406,360.751 374.406,358.752 373.406,358.752 373.406,357.751 372.405,357.751 372.405,355.752 373.406,355.752 373.406,354.751 372.405,354.751 372.405,350.752 371.405,350.752 371.405,349.752 370.406,349.752 370.406,347.752 369.405,347.752 369.405,345.75 367.406,345.75 367.406,344.752 366.405,344.752 366.405,343.752 364.406,343.752 364.406,342.75 363.405,342.75 363.405,341.752 361.406,341.752 361.406,340.752 359.405,340.752 359.405,339.75 358.406,339.75 358.406,338.752 355.406,338.752 355.406,337.752 353.405,337.752 353.405,336.75 352.406,336.75 352.406,335.752 351.405,335.752 351.405,334.752 350.406,334.752 350.406,330.751 349.406,330.751 349.406,329.752 350.406,329.752 350.406,312.751 351.405,312.751 351.405,311.751 352.406,311.751 352.406,310.752 354.405,310.752 354.405,309.751 355.406,309.751 355.406,308.751 356.405,308.751 356.405,307.752 358.406,307.752 358.406,306.751 359.405,306.751 359.405,300.75 358.406,300.75 358.406,295.752 357.405,295.752 357.405,291.75 356.405,291.75 356.405,290.752 355.406,290.752 355.406,273.752 356.405,273.752 356.405,271.752 355.406,271.752 355.406,270.752 356.405,270.752 356.405,267.751 357.405,267.751 357.405,265.752 358.406,265.752 358.406,263.751 359.405,263.751 359.405,261.751 360.405,261.751 360.405,259.752 361.406,259.752 361.406,257.752 362.405,257.752 362.405,253.752 364.406,253.752 364.406,252.75 365.405,252.75 365.405,249.75 366.405,249.75 366.405,247.752 367.406,247.752 367.406,246.75 368.405,246.75 368.405,244.752 369.405,244.752 369.405,243.751 370.406,243.751 370.406,242.752 371.405,242.752 371.405,240.751 372.405,240.751 372.405,238.75 373.406,238.75 373.406,237.752 374.406,237.752 374.406,223.752 373.406,223.752 373.406,221.751 372.405,221.751 372.405,219.751 371.405,219.751 371.405,216.751 370.406,216.751 370.406,213.751 369.405,213.751 369.405,211.752 368.405,211.752 368.405,204.75 367.406,204.75 367.406,203.752 364.406,203.752 364.406,202.752 360.405,202.752 "/>
   <polygon id="m_910151" class="fil" lc="470,170" points="108.405,403.752 105.405,403.752 105.405,404.751 104.406,404.751 104.406,405.751 103.406,405.751 103.406,407.751 104.406,407.751 104.406,408.752 105.405,408.752 105.405,410.751 106.406,410.751 106.406,412.752 107.406,412.752 107.406,416.751 108.405,416.751 108.405,421.75 109.406,421.75 109.406,429.75 110.406,429.75 110.406,430.752 111.405,430.752 111.405,447.751 110.406,447.751 110.406,448.752 109.406,448.752 109.406,451.752 108.405,451.752 108.405,453.752 107.406,453.752 107.406,454.752 106.406,454.752 106.406,456.752 105.405,456.752 105.405,459.751 104.406,459.751 104.406,461.751 103.406,461.751 103.406,462.751 102.405,462.751 102.405,464.751 101.406,464.751 101.406,466.75 100.406,466.75 100.406,467.752 99.4051,467.752 99.4051,468.751 98.4059,468.751 98.4059,470.752 97.4055,470.752 97.4055,472.752 96.4051,472.752 96.4051,474.75 95.4059,474.75 95.4059,475.752 94.4055,475.752 94.4055,478.752 93.4051,478.752 93.4051,487.752 94.4055,487.752 94.4055,488.752 95.4059,488.752 95.4059,489.751 96.4051,489.751 96.4051,491.751 98.4059,491.751 98.4059,492.751 100.406,492.751 100.406,494.751 101.406,494.751 101.406,495.751 103.406,495.751 103.406,496.752 104.406,496.752 104.406,497.751 105.405,497.751 105.405,498.752 107.406,498.752 107.406,499.752 108.405,499.752 108.405,500.751 109.406,500.751 109.406,501.751 110.406,501.751 110.406,502.752 113.406,502.752 113.406,503.751 114.405,503.751 114.405,504.751 115.406,504.751 115.406,505.75 117.405,505.75 117.405,506.751 118.406,506.751 118.406,507.751 119.405,507.751 119.405,508.75 121.406,508.75 121.406,510.751 122.405,510.751 122.405,511.75 124.406,511.75 124.406,512.752 125.405,512.752 125.405,513.751 126.405,513.751 126.405,515.752 127.406,515.752 127.406,516.751 128.405,516.751 128.405,517.752 129.405,517.752 129.405,518.752 130.406,518.752 130.406,519.75 131.405,519.75 131.405,521.752 132.405,521.752 132.405,523.752 133.406,523.752 133.406,524.752 134.405,524.752 134.405,526.752 135.405,526.752 135.405,529.752 136.406,529.752 136.406,531.751 137.405,531.751 137.405,536.751 140.406,536.751 140.406,535.752 143.406,535.752 143.406,534.751 144.405,534.751 144.405,533.752 147.405,533.752 147.405,532.752 157.406,532.752 157.406,531.751 160.406,531.751 160.406,532.752 162.405,532.752 162.405,531.751 167.405,531.751 167.405,530.752 170.405,530.752 170.405,529.752 172.406,529.752 172.406,528.75 174.405,528.75 174.405,527.752 176.405,527.752 176.405,526.752 177.405,526.752 177.405,525.75 182.405,525.75 182.405,524.752 184.406,524.752 184.406,523.752 188.406,523.752 188.406,522.75 205.406,522.75 205.406,523.752 206.406,523.752 206.406,524.752 209.406,524.752 209.406,525.75 211.406,525.75 211.406,526.752 212.405,526.752 212.405,527.752 214.406,527.752 214.406,528.75 215.405,528.75 215.405,529.752 216.405,529.752 216.405,530.752 217.406,530.752 217.406,531.751 219.405,531.751 219.405,532.752 220.406,532.752 220.406,533.752 221.405,533.752 221.405,535.752 222.405,535.752 222.405,536.751 223.406,536.751 223.406,538.752 224.405,538.752 224.405,540.751 225.405,540.751 225.405,541.752 226.406,541.752 226.406,542.751 227.405,542.751 227.405,543.752 232.406,543.752 232.406,542.751 233.406,542.751 233.406,541.752 234.405,541.752 234.405,540.751 235.406,540.751 235.406,537.751 236.406,537.751 236.406,536.751 237.405,536.751 237.405,532.752 238.406,532.752 238.406,528.75 239.406,528.75 239.406,525.75 240.405,525.75 240.405,519.75 239.406,519.75 239.406,505.75 240.405,505.75 240.405,504.751 241.406,504.751 241.406,503.751 247.406,503.751 247.406,502.752 260.405,502.752 260.405,501.751 262.406,501.751 262.406,500.751 263.405,500.751 263.405,497.751 262.406,497.751 262.406,494.751 261.405,494.751 261.405,492.751 260.405,492.751 260.405,490.752 259.406,490.752 259.406,488.752 258.405,488.752 258.405,487.752 257.405,487.752 257.405,486.751 256.406,486.751 256.406,484.752 255.405,484.752 255.405,483.75 254.406,483.75 254.406,482.752 252.405,482.752 252.405,481.752 250.406,481.752 250.406,480.75 248.406,480.75 248.406,479.752 247.406,479.752 247.406,475.752 246.405,475.752 246.405,469.75 245.406,469.75 245.406,468.751 244.406,468.751 244.406,467.752 243.405,467.752 243.405,466.75 241.406,466.75 241.406,465.751 239.406,465.751 239.406,464.751 236.406,464.751 236.406,463.75 234.405,463.75 234.405,462.751 229.406,462.751 229.406,461.751 227.405,461.751 227.405,460.75 225.405,460.75 225.405,459.751 224.405,459.751 224.405,458.751 222.405,458.751 222.405,457.752 221.405,457.752 221.405,456.752 218.405,456.752 218.405,455.751 217.406,455.751 217.406,454.752 216.405,454.752 216.405,453.752 215.405,453.752 215.405,452.751 214.406,452.751 214.406,450.751 212.405,450.751 212.405,449.751 211.406,449.751 211.406,448.752 210.405,448.752 210.405,447.751 208.406,447.751 208.406,445.752 206.406,445.752 206.406,444.751 204.405,444.751 204.405,443.752 202.406,443.752 202.406,442.752 201.405,442.752 201.405,440.752 199.406,440.752 199.406,439.752 198.405,439.752 198.405,438.75 196.406,438.75 196.406,437.752 195.405,437.752 195.405,436.752 194.406,436.752 194.406,435.75 193.406,435.75 193.406,434.752 191.406,434.752 191.406,433.752 189.405,433.752 189.405,432.75 188.406,432.75 188.406,431.752 187.406,431.752 187.406,430.752 185.405,430.752 185.405,429.75 183.405,429.75 183.405,428.752 182.405,428.752 182.405,427.752 181.406,427.752 181.406,426.751 180.405,426.751 180.405,425.752 178.406,425.752 178.406,423.751 177.405,423.751 177.405,422.752 176.405,422.752 176.405,421.75 174.405,421.75 174.405,420.751 173.405,420.751 173.405,419.751 172.406,419.751 172.406,418.75 171.405,418.75 171.405,417.751 170.405,417.751 170.405,416.751 169.406,416.751 169.406,414.751 168.405,414.751 168.405,413.751 167.405,413.751 167.405,412.752 166.406,412.752 166.406,411.752 164.405,411.752 164.405,410.751 163.406,410.751 163.406,408.752 162.405,408.752 162.405,407.751 161.406,407.751 161.406,406.752 160.406,406.752 160.406,405.751 158.406,405.751 158.406,404.751 156.405,404.751 156.405,403.752 150.405,403.752 150.405,404.751 149.406,404.751 149.406,409.752 137.405,409.752 137.405,408.752 135.405,408.752 135.405,407.751 133.406,407.751 133.406,408.752 131.405,408.752 131.405,407.751 128.405,407.751 128.405,406.752 125.405,406.752 125.405,405.751 121.406,405.751 121.406,404.751 116.406,404.751 116.406,403.752 111.405,403.752 111.405,402.751 108.405,402.751 "/>
   <polygon id="m_910169" class="fil" lc="200,560" points="658.406,128.751 654.405,128.751 654.405,129.751 651.405,129.751 651.405,130.752 647.405,130.752 647.405,131.751 645.405,131.751 645.405,132.751 642.405,132.751 642.405,133.752 641.405,133.752 641.405,134.751 638.405,134.751 638.405,135.752 634.406,135.752 634.406,136.752 632.405,136.752 632.405,137.751 629.406,137.751 629.406,138.752 628.406,138.752 628.406,139.752 626.406,139.752 626.406,140.752 625.406,140.752 625.406,141.752 624.405,141.752 624.405,142.75 621.405,142.75 621.405,143.752 620.406,143.752 620.406,144.752 618.405,144.752 618.405,145.75 616.406,145.75 616.406,146.752 615.405,146.752 615.405,147.752 613.406,147.752 613.406,148.75 611.406,148.75 611.406,149.752 610.406,149.752 610.406,150.752 608.406,150.752 608.406,151.75 606.405,151.75 606.405,152.752 604.406,152.752 604.406,153.751 602.405,153.751 602.405,154.752 600.405,154.752 600.405,155.752 597.405,155.752 597.405,156.75 594.405,156.75 594.405,157.752 591.405,157.752 591.405,158.752 587.405,158.752 587.405,159.75 585.405,159.75 585.405,160.752 584.406,160.752 584.406,161.752 583.406,161.752 583.406,162.75 581.406,162.75 581.406,163.752 576.405,163.752 576.405,164.752 575.406,164.752 575.406,165.75 574.406,165.75 574.406,166.752 572.406,166.752 572.406,167.752 571.406,167.752 571.406,168.751 569.406,168.751 569.406,169.752 566.406,169.752 566.406,170.752 564.405,170.752 564.405,171.751 560.406,171.751 560.406,172.752 555.405,172.752 555.405,173.751 554.405,173.751 554.405,174.751 551.405,174.751 551.405,175.752 540.405,175.752 540.405,176.751 538.406,176.751 538.406,177.751 527.406,177.751 527.406,176.751 514.406,176.751 514.406,175.752 512.405,175.752 512.405,174.751 509.405,174.751 509.405,173.751 506.405,173.751 506.405,172.752 500.405,172.752 500.405,171.751 496.406,171.751 496.406,170.752 494.405,170.752 494.405,169.752 491.406,169.752 491.406,168.751 489.405,168.751 489.405,167.752 486.405,167.752 486.405,179.751 487.406,179.751 487.406,188.752 488.406,188.752 488.406,190.75 489.405,190.75 489.405,192.752 490.406,192.752 490.406,196.75 491.406,196.75 491.406,198.751 492.405,198.751 492.405,199.752 493.406,199.752 493.406,200.752 494.405,200.752 494.405,202.752 495.405,202.752 495.405,203.752 496.406,203.752 496.406,204.75 497.405,204.75 497.405,205.752 498.405,205.752 498.405,206.752 499.406,206.752 499.406,207.75 501.405,207.75 501.405,208.752 502.406,208.752 502.406,210.75 503.405,210.75 503.405,211.752 504.405,211.752 504.405,212.752 505.406,212.752 505.406,216.751 506.405,216.751 506.405,218.751 507.405,218.751 507.405,221.751 508.406,221.751 508.406,222.751 509.405,222.751 509.405,225.752 510.405,225.752 510.405,228.752 511.406,228.752 511.406,230.752 512.405,230.752 512.405,237.752 513.405,237.752 513.405,241.75 514.406,241.75 514.406,244.752 515.406,244.752 515.406,245.752 516.405,245.752 516.405,247.752 517.406,247.752 517.406,248.752 518.406,248.752 518.406,250.752 519.405,250.752 519.405,251.752 520.406,251.752 520.406,253.752 521.406,253.752 521.406,254.752 522.405,254.752 522.405,255.75 523.406,255.75 523.406,256.752 524.406,256.752 524.406,257.752 525.405,257.752 525.405,258.751 526.406,258.751 526.406,261.751 527.406,261.751 527.406,262.752 528.405,262.752 528.405,263.751 529.406,263.751 529.406,265.752 530.406,265.752 530.406,266.751 531.405,266.751 531.405,267.751 532.406,267.751 532.406,268.752 534.405,268.752 534.405,269.751 542.405,269.751 542.405,270.752 544.406,270.752 544.406,269.751 545.405,269.751 545.405,270.752 551.405,270.752 551.405,269.751 555.405,269.751 555.405,270.752 565.406,270.752 565.406,271.752 568.406,271.752 568.406,272.751 570.405,272.751 570.405,273.752 573.405,273.752 573.405,274.752 576.405,274.752 576.405,275.752 577.406,275.752 577.406,276.752 580.406,276.752 580.406,277.75 582.405,277.75 582.405,278.752 583.406,278.752 583.406,279.752 584.406,279.752 584.406,280.75 585.405,280.75 585.405,281.752 586.406,281.752 586.406,282.751 587.405,282.751 587.405,283.75 588.405,283.75 588.405,284.752 589.406,284.752 589.406,285.751 591.405,285.751 591.405,287.752 592.406,287.752 592.406,288.751 593.405,288.751 593.405,289.752 594.405,289.752 594.405,290.752 595.406,290.752 595.406,291.75 597.405,291.75 597.405,293.752 598.406,293.752 598.406,295.752 599.405,295.752 599.405,298.752 601.406,298.752 601.406,300.75 602.405,300.75 602.405,301.752 603.405,301.752 603.405,302.752 604.406,302.752 604.406,303.751 605.405,303.751 605.405,304.752 606.405,304.752 606.405,306.751 607.406,306.751 607.406,307.752 608.406,307.752 608.406,308.751 610.406,308.751 610.406,307.752 609.405,307.752 609.405,266.751 610.406,266.751 610.406,264.751 611.406,264.751 611.406,251.752 612.405,251.752 612.405,249.75 613.406,249.75 613.406,240.751 614.406,240.751 614.406,237.752 615.405,237.752 615.405,231.752 616.406,231.752 616.406,224.751 617.406,224.751 617.406,220.752 618.405,220.752 618.405,213.751 619.406,213.751 619.406,209.752 620.406,209.752 620.406,206.752 621.405,206.752 621.405,203.752 622.406,203.752 622.406,197.752 623.406,197.752 623.406,195.751 624.405,195.751 624.405,192.752 625.406,192.752 625.406,190.75 626.406,190.75 626.406,188.752 627.405,188.752 627.405,186.752 628.406,186.752 628.406,185.752 629.406,185.752 629.406,183.752 630.405,183.752 630.405,181.752 631.406,181.752 631.406,180.752 632.405,180.752 632.405,179.751 633.405,179.751 633.405,178.752 635.405,178.752 635.405,177.751 636.405,177.751 636.405,175.752 637.406,175.752 637.406,174.751 638.405,174.751 638.405,172.752 639.405,172.752 639.405,171.751 640.406,171.751 640.406,170.752 641.405,170.752 641.405,169.752 642.405,169.752 642.405,168.751 643.406,168.751 643.406,167.752 644.405,167.752 644.405,166.752 645.405,166.752 645.405,164.752 647.405,164.752 647.405,163.752 649.406,163.752 649.406,161.752 651.405,161.752 651.405,160.752 652.406,160.752 652.406,159.75 653.406,159.75 653.406,158.752 654.405,158.752 654.405,157.752 655.406,157.752 655.406,156.75 656.406,156.75 656.406,155.752 657.405,155.752 657.405,153.751 658.406,153.751 658.406,152.752 659.406,152.752 659.406,151.75 661.406,151.75 661.406,150.752 662.406,150.752 662.406,149.752 663.405,149.752 663.405,148.75 664.406,148.75 664.406,147.752 665.406,147.752 665.406,146.752 666.405,146.752 666.405,145.75 667.406,145.75 667.406,144.752 668.406,144.752 668.406,143.752 669.405,143.752 669.405,142.75 670.406,142.75 670.406,141.752 671.406,141.752 671.406,140.752 672.405,140.752 672.405,138.752 673.406,138.752 673.406,137.751 674.406,137.751 674.406,130.752 673.406,130.752 673.406,128.751 671.406,128.751 671.406,127.752 658.406,127.752 "/>
   <polygon id="m_910152" class="fil" lc="565,220" points="262.406,504.751 261.405,504.751 261.405,505.75 247.406,505.75 247.406,506.751 242.406,506.751 242.406,518.752 243.405,518.752 243.405,525.75 242.406,525.75 242.406,528.75 241.406,528.75 241.406,532.752 240.405,532.752 240.405,536.751 239.406,536.751 239.406,539.751 238.406,539.751 238.406,541.752 237.405,541.752 237.405,542.751 236.406,542.751 236.406,543.752 235.406,543.752 235.406,544.752 234.405,544.752 234.405,545.751 233.406,545.751 233.406,546.751 230.405,546.751 230.405,545.751 224.405,545.751 224.405,543.752 223.406,543.752 223.406,542.751 222.405,542.751 222.405,541.752 221.405,541.752 221.405,539.751 220.406,539.751 220.406,537.751 219.405,537.751 219.405,535.752 218.405,535.752 218.405,534.751 216.405,534.751 216.405,533.752 215.405,533.752 215.405,532.752 214.406,532.752 214.406,531.751 213.405,531.751 213.405,530.752 211.406,530.752 211.406,529.752 210.405,529.752 210.405,528.75 208.406,528.75 208.406,527.752 206.406,527.752 206.406,526.752 204.405,526.752 204.405,525.75 200.406,525.75 200.406,524.752 197.406,524.752 197.406,525.75 188.406,525.75 188.406,526.752 184.406,526.752 184.406,527.752 183.405,527.752 183.405,528.75 178.406,528.75 178.406,529.752 177.405,529.752 177.405,530.752 175.406,530.752 175.406,531.751 173.405,531.751 173.405,532.752 171.405,532.752 171.405,533.752 168.405,533.752 168.405,534.751 157.406,534.751 157.406,535.752 146.406,535.752 146.406,536.751 145.406,536.751 145.406,537.751 144.405,537.751 144.405,538.752 141.405,538.752 141.405,539.751 140.406,539.751 140.406,541.752 139.406,541.752 139.406,543.752 140.406,543.752 140.406,549.751 141.405,549.751 141.405,561.751 142.406,561.751 142.406,563.752 143.406,563.752 143.406,572.752 144.405,572.752 144.405,581.751 145.406,581.751 145.406,585.751 146.406,585.751 146.406,586.752 147.405,586.752 147.405,588.751 148.406,588.751 148.406,590.751 149.406,590.751 149.406,593.751 150.405,593.751 150.405,594.751 151.406,594.751 151.406,595.75 152.406,595.75 152.406,597.751 153.405,597.751 153.405,598.75 154.406,598.75 154.406,600.751 155.406,600.751 155.406,601.75 156.405,601.75 156.405,603.751 157.406,603.751 157.406,604.75 158.406,604.75 158.406,606.751 159.405,606.751 159.405,607.752 160.406,607.752 160.406,608.752 161.406,608.752 161.406,609.75 162.405,609.75 162.405,611.752 163.406,611.752 163.406,612.75 165.405,612.75 165.405,613.752 166.406,613.752 166.406,614.752 167.405,614.752 167.405,615.75 169.406,615.75 169.406,616.752 171.405,616.752 171.405,617.752 175.406,617.752 175.406,618.75 177.405,618.75 177.405,619.752 178.406,619.752 178.406,620.752 198.405,620.752 198.405,619.752 204.405,619.752 204.405,618.75 207.405,618.75 207.405,617.752 212.405,617.752 212.405,616.752 215.405,616.752 215.405,615.75 219.405,615.75 219.405,614.752 222.405,614.752 222.405,613.752 224.405,613.752 224.405,612.75 228.405,612.75 228.405,611.752 231.405,611.752 231.405,610.752 235.406,610.752 235.406,609.75 239.406,609.75 239.406,608.752 241.406,608.752 241.406,607.752 243.405,607.752 243.405,606.751 245.406,606.751 245.406,605.752 247.406,605.752 247.406,604.75 249.405,604.75 249.405,603.751 251.406,603.751 251.406,602.752 254.406,602.752 254.406,601.75 258.405,601.75 258.405,600.751 262.406,600.751 262.406,599.751 271.406,599.751 271.406,598.75 276.405,598.75 276.405,597.751 281.406,597.751 281.406,595.75 282.405,595.75 282.405,590.751 283.406,590.751 283.406,588.751 284.406,588.751 284.406,586.752 285.405,586.752 285.405,585.751 286.406,585.751 286.406,583.752 287.406,583.752 287.406,582.751 288.405,582.751 288.405,581.751 289.406,581.751 289.406,580.752 290.406,580.752 290.406,579.751 291.405,579.751 291.405,577.752 293.406,577.752 293.406,576.751 295.406,576.751 295.406,575.752 297.405,575.752 297.405,574.752 298.406,574.752 298.406,573.75 311.405,573.75 311.405,572.752 312.405,572.752 312.405,571.752 316.406,571.752 316.406,570.75 321.405,570.75 321.405,569.752 323.405,569.752 323.405,568.752 324.405,568.752 324.405,567.75 326.406,567.75 326.406,566.752 327.405,566.752 327.405,565.752 329.406,565.752 329.406,564.75 330.405,564.75 330.405,563.752 332.406,563.752 332.406,562.752 336.405,562.752 336.405,561.751 337.406,561.751 337.406,560.752 338.406,560.752 338.406,559.75 340.406,559.75 340.406,558.751 341.406,558.751 341.406,557.752 343.406,557.752 343.406,556.75 345.405,556.75 345.405,555.751 346.406,555.751 346.406,553.75 348.405,553.75 348.405,552.751 350.406,552.751 350.406,550.75 351.405,550.75 351.405,549.751 352.406,549.751 352.406,548.751 353.405,548.751 353.405,546.751 354.405,546.751 354.405,544.752 355.406,544.752 355.406,537.751 356.405,537.751 356.405,535.752 357.405,535.752 357.405,532.752 354.405,532.752 354.405,533.752 352.406,533.752 352.406,534.751 349.406,534.751 349.406,535.752 348.405,535.752 348.405,536.751 345.405,536.751 345.405,537.751 343.406,537.751 343.406,538.752 340.406,538.752 340.406,539.751 338.406,539.751 338.406,540.751 336.405,540.751 336.405,541.752 335.406,541.752 335.406,542.751 334.406,542.751 334.406,543.752 332.406,543.752 332.406,544.752 330.405,544.752 330.405,545.751 319.406,545.751 319.406,544.752 317.405,544.752 317.405,543.752 314.405,543.752 314.405,542.751 313.406,542.751 313.406,541.752 311.405,541.752 311.405,540.751 310.406,540.751 310.406,539.751 307.406,539.751 307.406,538.752 305.405,538.752 305.405,537.751 304.406,537.751 304.406,536.751 303.405,536.751 303.405,535.752 300.405,535.752 300.405,534.751 299.406,534.751 299.406,533.752 298.406,533.752 298.406,532.752 296.406,532.752 296.406,531.751 294.405,531.751 294.405,530.752 293.406,530.752 293.406,529.752 292.406,529.752 292.406,528.75 290.406,528.75 290.406,527.752 288.405,527.752 288.405,526.752 287.406,526.752 287.406,525.75 286.406,525.75 286.406,524.752 284.406,524.752 284.406,523.752 282.405,523.752 282.405,522.75 281.406,522.75 281.406,521.752 278.405,521.752 278.405,520.752 277.406,520.752 277.406,519.75 275.405,519.75 275.405,518.752 273.405,518.752 273.405,517.752 272.405,517.752 272.405,516.751 271.406,516.751 271.406,515.752 270.405,515.752 270.405,514.75 269.405,514.75 269.405,513.751 268.406,513.751 268.406,510.751 267.405,510.751 267.405,507.751 266.405,507.751 266.405,505.75 265.406,505.75 265.406,503.751 262.406,503.751 "/>
   <polygon id="m_910155" class="fil" lc="345,560" points="616.406,444.751 616.406,442.752 617.406,442.752 617.406,439.752 618.405,439.752 618.405,373.75 617.406,373.75 617.406,371.751 616.406,371.751 616.406,368.752 615.405,368.752 615.405,366.752 614.406,366.752 614.406,356.751 613.406,356.751 613.406,350.752 612.405,350.752 612.405,344.752 611.406,344.752 611.406,315.752 610.406,315.752 610.406,313.752 609.405,313.752 609.405,311.751 608.406,311.751 608.406,310.752 607.406,310.752 607.406,308.751 606.405,308.751 606.405,307.752 605.405,307.752 605.405,306.751 604.406,306.751 604.406,304.752 603.405,304.752 603.405,303.751 602.405,303.751 602.405,302.752 601.406,302.752 601.406,301.752 600.405,301.752 600.405,300.75 599.405,300.75 599.405,299.752 598.406,299.752 598.406,298.752 597.405,298.752 597.405,296.752 596.405,296.752 596.405,293.752 595.406,293.752 595.406,292.752 593.405,292.752 593.405,290.752 592.406,290.752 592.406,289.752 591.405,289.752 591.405,288.751 590.405,288.751 590.405,287.752 589.406,287.752 589.406,286.75 588.405,286.75 588.405,285.751 587.405,285.751 587.405,284.752 586.406,284.752 586.406,283.75 585.405,283.75 585.405,282.751 584.406,282.751 584.406,281.752 583.406,281.752 583.406,280.75 582.405,280.75 582.405,279.752 580.406,279.752 580.406,278.752 578.406,278.752 578.406,277.75 576.405,277.75 576.405,276.752 573.405,276.752 573.405,275.752 570.405,275.752 570.405,274.752 569.406,274.752 569.406,273.752 566.406,273.752 566.406,272.751 554.405,272.751 554.405,271.752 551.405,271.752 551.405,272.751 546.405,272.751 546.405,271.752 534.405,271.752 534.405,270.752 532.406,270.752 532.406,269.751 530.406,269.751 530.406,268.752 526.406,268.752 526.406,269.751 525.405,269.751 525.405,270.752 524.406,270.752 524.406,272.751 523.406,272.751 523.406,273.752 522.405,273.752 522.405,274.752 521.406,274.752 521.406,276.752 520.406,276.752 520.406,278.752 519.405,278.752 519.405,279.752 518.406,279.752 518.406,281.752 517.406,281.752 517.406,282.751 516.405,282.751 516.405,285.751 515.406,285.751 515.406,287.752 514.406,287.752 514.406,290.752 515.406,290.752 515.406,291.75 514.406,291.75 514.406,293.752 513.405,293.752 513.405,295.752 512.405,295.752 512.405,297.75 511.406,297.75 511.406,300.75 510.405,300.75 510.405,303.751 509.405,303.751 509.405,305.752 508.406,305.752 508.406,307.752 507.405,307.752 507.405,308.751 506.405,308.751 506.405,311.751 505.406,311.751 505.406,312.751 504.405,312.751 504.405,315.752 503.405,315.752 503.405,317.751 502.406,317.751 502.406,318.752 501.405,318.752 501.405,320.752 500.405,320.752 500.405,322.75 499.406,322.75 499.406,323.752 498.405,323.752 498.405,324.752 497.405,324.752 497.405,325.75 496.406,325.75 496.406,326.751 495.405,326.751 495.405,327.751 493.406,327.751 493.406,328.75 492.405,328.75 492.405,329.752 491.406,329.752 491.406,330.751 490.406,330.751 490.406,331.75 489.405,331.75 489.405,333.751 488.406,333.751 488.406,334.752 486.405,334.752 486.405,335.752 485.406,335.752 485.406,336.75 484.406,336.75 484.406,337.752 483.405,337.752 483.405,338.752 481.406,338.752 481.406,339.75 480.405,339.75 480.405,340.752 479.406,340.752 479.406,341.752 477.405,341.752 477.405,342.75 475.406,342.75 475.406,343.752 474.405,343.752 474.405,344.752 473.406,344.752 473.406,345.75 471.405,345.75 471.405,346.752 470.406,346.752 470.406,347.752 469.406,347.752 469.406,348.751 468.405,348.751 468.405,349.752 467.406,349.752 467.406,350.752 466.406,350.752 466.406,352.752 465.405,352.752 465.405,353.752 464.405,353.752 464.405,358.752 465.405,358.752 465.405,359.751 467.406,359.751 467.406,360.751 468.405,360.751 468.405,361.752 469.406,361.752 469.406,362.751 470.406,362.751 470.406,363.752 472.406,363.752 472.406,364.752 474.405,364.752 474.405,365.751 475.406,365.751 475.406,366.752 477.405,366.752 477.405,367.752 478.406,367.752 478.406,369.751 489.405,369.751 489.405,370.75 502.406,370.75 502.406,369.751 503.405,369.751 503.405,368.752 505.406,368.752 505.406,367.752 506.405,367.752 506.405,366.752 509.405,366.752 509.405,365.751 511.406,365.751 511.406,364.752 517.406,364.752 517.406,365.751 518.406,365.751 518.406,366.752 519.405,366.752 519.405,367.752 521.406,367.752 521.406,368.752 522.405,368.752 522.405,369.751 525.405,369.751 525.405,370.75 530.406,370.75 530.406,371.751 535.406,371.751 535.406,370.75 536.406,370.75 536.406,371.751 538.406,371.751 538.406,372.751 539.405,372.751 539.405,373.75 541.406,373.75 541.406,374.751 543.405,374.751 543.405,375.751 544.406,375.751 544.406,376.75 546.405,376.75 546.405,377.752 548.405,377.752 548.405,378.751 550.406,378.751 550.406,379.752 551.405,379.752 551.405,381.751 552.405,381.751 552.405,382.752 554.405,382.752 554.405,383.752 555.405,383.752 555.405,384.75 557.405,384.75 557.405,385.752 561.405,385.752 561.405,386.752 565.406,386.752 565.406,387.75 568.406,387.75 568.406,388.752 569.406,388.752 569.406,389.752 570.405,389.752 570.405,390.75 571.406,390.75 571.406,391.752 573.405,391.752 573.405,392.752 575.406,392.752 575.406,393.751 576.405,393.751 576.405,394.752 577.406,394.752 577.406,395.752 578.406,395.752 578.406,396.751 579.405,396.751 579.405,397.752 580.406,397.752 580.406,398.752 581.406,398.752 581.406,399.751 582.405,399.751 582.405,400.752 583.406,400.752 583.406,401.751 584.406,401.751 584.406,402.751 585.405,402.751 585.405,403.752 586.406,403.752 586.406,404.751 587.405,404.751 587.405,406.752 588.405,406.752 588.405,407.751 589.406,407.751 589.406,408.752 590.405,408.752 590.405,409.752 591.405,409.752 591.405,411.752 592.406,411.752 592.406,412.752 593.405,412.752 593.405,413.751 594.405,413.751 594.405,414.751 595.406,414.751 595.406,418.75 596.405,418.75 596.405,419.751 597.405,419.751 597.405,420.751 598.406,420.751 598.406,423.751 599.405,423.751 599.405,425.752 600.405,425.752 600.405,426.751 601.406,426.751 601.406,429.75 602.405,429.75 602.405,431.752 603.405,431.752 603.405,433.752 604.406,433.752 604.406,434.752 605.405,434.752 605.405,436.752 606.405,436.752 606.405,437.752 607.406,437.752 607.406,439.752 608.406,439.752 608.406,441.751 610.406,441.751 610.406,443.752 611.406,443.752 611.406,446.751 612.405,446.751 612.405,447.751 613.406,447.751 613.406,448.752 615.405,448.752 615.405,444.751 "/>
   <polygon id="m_910170" class="fil" lc="175,275" points="248.406,121.752 242.406,121.752 242.406,122.752 225.405,122.752 225.405,126.751 224.405,126.751 224.405,129.751 223.406,129.751 223.406,131.751 222.405,131.751 222.405,134.751 221.405,134.751 221.405,136.752 220.406,136.752 220.406,138.752 219.405,138.752 219.405,140.752 218.405,140.752 218.405,142.75 217.406,142.75 217.406,144.752 216.405,144.752 216.405,157.752 215.405,157.752 215.405,162.75 214.406,162.75 214.406,164.752 213.405,164.752 213.405,167.752 212.405,167.752 212.405,168.751 211.406,168.751 211.406,169.752 210.405,169.752 210.405,171.751 209.406,171.751 209.406,172.752 208.406,172.752 208.406,173.751 206.406,173.751 206.406,174.751 205.406,174.751 205.406,175.752 204.405,175.752 204.405,176.751 203.406,176.751 203.406,177.751 201.405,177.751 201.405,178.752 200.406,178.752 200.406,179.751 199.406,179.751 199.406,180.752 196.406,180.752 196.406,181.752 195.405,181.752 195.405,182.751 194.406,182.751 194.406,183.752 193.406,183.752 193.406,190.75 192.405,190.75 192.405,193.75 193.406,193.75 193.406,194.752 194.406,194.752 194.406,195.751 195.405,195.751 195.405,196.75 196.406,196.75 196.406,197.752 197.406,197.752 197.406,198.751 198.405,198.751 198.405,199.752 199.406,199.752 199.406,200.752 200.406,200.752 200.406,202.752 201.405,202.752 201.405,204.75 202.406,204.75 202.406,206.752 203.406,206.752 203.406,207.75 208.406,207.75 208.406,208.752 218.405,208.752 218.405,207.75 219.405,207.75 219.405,206.752 234.405,206.752 234.405,207.75 243.405,207.75 243.405,208.752 246.405,208.752 246.405,209.752 249.405,209.752 249.405,210.75 251.406,210.75 251.406,211.752 252.405,211.752 252.405,212.752 253.406,212.752 253.406,213.751 254.406,213.751 254.406,214.752 255.405,214.752 255.405,215.752 256.406,215.752 256.406,216.751 257.405,216.751 257.405,217.752 258.405,217.752 258.405,218.751 259.406,218.751 259.406,219.751 261.405,219.751 261.405,220.752 263.405,220.752 263.405,221.751 264.405,221.751 264.405,222.751 266.405,222.751 266.405,223.752 268.406,223.752 268.406,224.751 270.405,224.751 270.405,225.752 271.406,225.752 271.406,226.752 272.405,226.752 272.405,227.751 273.405,227.751 273.405,228.752 274.406,228.752 274.406,229.752 275.405,229.752 275.405,230.752 277.406,230.752 277.406,231.752 278.405,231.752 278.405,233.752 280.406,233.752 280.406,234.752 283.406,234.752 283.406,233.752 285.405,233.752 285.405,232.75 287.406,232.75 287.406,231.752 293.406,231.752 293.406,232.75 295.406,232.75 295.406,231.752 299.406,231.752 299.406,230.752 301.406,230.752 301.406,229.752 303.405,229.752 303.405,228.752 307.406,228.752 307.406,227.751 309.405,227.751 309.405,226.752 311.405,226.752 311.405,225.752 313.406,225.752 313.406,224.751 314.405,224.751 314.405,223.752 316.406,223.752 316.406,222.751 319.406,222.751 319.406,221.751 322.406,221.751 322.406,220.752 326.406,220.752 326.406,219.751 328.406,219.751 328.406,218.751 331.406,218.751 331.406,217.752 333.405,217.752 333.405,216.751 334.406,216.751 334.406,215.752 336.405,215.752 336.405,214.752 339.405,214.752 339.405,213.751 340.406,213.751 340.406,212.752 342.405,212.752 342.405,211.752 344.406,211.752 344.406,210.75 345.405,210.75 345.405,209.752 347.406,209.752 347.406,208.752 348.405,208.752 348.405,207.75 349.406,207.75 349.406,206.752 350.406,206.752 350.406,205.752 351.405,205.752 351.405,204.75 353.405,204.75 353.405,203.752 355.406,203.752 355.406,202.752 356.405,202.752 356.405,201.75 357.405,201.75 357.405,200.752 359.405,200.752 359.405,199.752 364.406,199.752 364.406,200.752 367.406,200.752 367.406,196.75 366.405,196.75 366.405,194.752 365.405,194.752 365.405,192.752 364.406,192.752 364.406,191.752 363.405,191.752 363.405,181.752 362.405,181.752 362.405,180.752 361.406,180.752 361.406,167.752 360.405,167.752 360.405,164.752 359.405,164.752 359.405,163.752 358.406,163.752 358.406,162.75 355.406,162.75 355.406,161.752 353.405,161.752 353.405,160.752 346.406,160.752 346.406,159.75 343.406,159.75 343.406,158.752 342.405,158.752 342.405,157.752 340.406,157.752 340.406,156.75 339.405,156.75 339.405,155.752 337.406,155.752 337.406,154.752 335.406,154.752 335.406,153.751 333.405,153.751 333.405,152.752 331.406,152.752 331.406,151.75 329.406,151.75 329.406,150.752 326.406,150.752 326.406,149.752 325.406,149.752 325.406,148.75 322.406,148.75 322.406,147.752 321.405,147.752 321.405,146.752 320.405,146.752 320.405,145.75 318.405,145.75 318.405,144.752 317.405,144.752 317.405,143.752 316.406,143.752 316.406,142.75 315.405,142.75 315.405,141.752 314.405,141.752 314.405,140.752 312.405,140.752 312.405,139.752 311.405,139.752 311.405,138.752 310.406,138.752 310.406,137.751 308.405,137.751 308.405,136.752 307.406,136.752 307.406,135.752 304.406,135.752 304.406,134.751 302.406,134.751 302.406,133.752 300.405,133.752 300.405,132.751 299.406,132.751 299.406,131.751 296.406,131.751 296.406,130.752 294.405,130.752 294.405,129.751 292.406,129.751 292.406,128.751 289.406,128.751 289.406,127.752 287.406,127.752 287.406,126.751 281.406,126.751 281.406,125.752 279.405,125.752 279.405,124.752 274.406,124.752 274.406,123.751 270.405,123.751 270.405,122.752 261.405,122.752 261.405,121.752 257.405,121.752 257.405,120.75 248.406,120.75 "/>
   <polygon id="m_910167" class="fil" lc="265,435" points="493.406,209.752 491.406,209.752 491.406,210.75 488.406,210.75 488.406,211.752 486.405,211.752 486.405,212.752 484.406,212.752 484.406,213.751 483.405,213.751 483.405,214.752 481.406,214.752 481.406,215.752 479.406,215.752 479.406,221.751 478.406,221.751 478.406,224.751 477.405,224.751 477.405,225.752 476.406,225.752 476.406,227.751 475.406,227.751 475.406,229.752 474.405,229.752 474.405,230.752 473.406,230.752 473.406,231.752 472.406,231.752 472.406,232.75 470.406,232.75 470.406,233.752 465.405,233.752 465.405,234.752 462.405,234.752 462.405,235.75 460.406,235.75 460.406,236.752 454.406,236.752 454.406,237.752 446.405,237.752 446.405,236.752 445.406,236.752 445.406,237.752 437.406,237.752 437.406,236.752 435.405,236.752 435.405,237.752 432.405,237.752 432.405,236.752 431.406,236.752 431.406,235.75 419.405,235.75 419.405,236.752 416.405,236.752 416.405,237.752 408.405,237.752 408.405,238.75 406.406,238.75 406.406,239.752 404.405,239.752 404.405,240.751 400.406,240.751 400.406,241.75 398.405,241.75 398.405,242.752 397.406,242.752 397.406,243.751 396.405,243.751 396.405,244.752 394.406,244.752 394.406,246.75 393.405,246.75 393.405,247.752 392.406,247.752 392.406,248.752 390.405,248.752 390.405,249.75 389.406,249.75 389.406,250.752 387.405,250.752 387.405,251.752 384.405,251.752 384.405,252.75 383.406,252.75 383.406,253.752 381.405,253.752 381.405,254.752 378.405,254.752 378.405,255.75 375.405,255.75 375.405,256.752 365.405,256.752 365.405,258.751 364.406,258.751 364.406,260.752 363.405,260.752 363.405,262.752 362.405,262.752 362.405,264.751 361.406,264.751 361.406,265.752 360.405,265.752 360.405,269.751 359.405,269.751 359.405,279.752 358.406,279.752 358.406,282.751 359.405,282.751 359.405,283.75 358.406,283.75 358.406,286.75 359.405,286.75 359.405,287.752 358.406,287.752 358.406,289.752 359.405,289.752 359.405,290.752 360.405,290.752 360.405,294.75 361.406,294.75 361.406,299.752 362.405,299.752 362.405,303.751 363.405,303.751 363.405,306.751 362.405,306.751 362.405,307.752 361.406,307.752 361.406,309.751 359.405,309.751 359.405,310.752 358.406,310.752 358.406,311.751 356.405,311.751 356.405,312.751 355.406,312.751 355.406,313.752 354.405,313.752 354.405,315.752 356.405,315.752 356.405,317.751 358.406,317.751 358.406,318.752 360.405,318.752 360.405,319.752 362.405,319.752 362.405,320.752 363.405,320.752 363.405,321.752 365.405,321.752 365.405,322.75 367.406,322.75 367.406,321.752 369.405,321.752 369.405,322.75 371.405,322.75 371.405,321.752 381.405,321.752 381.405,322.75 382.406,322.75 382.406,321.752 396.405,321.752 396.405,320.752 399.405,320.752 399.405,319.752 400.406,319.752 400.406,318.752 401.405,318.752 401.405,317.751 402.405,317.751 402.405,315.752 403.406,315.752 403.406,314.751 404.405,314.751 404.405,313.752 405.405,313.752 405.405,312.751 406.406,312.751 406.406,311.751 407.405,311.751 407.405,310.752 409.406,310.752 409.406,309.751 410.405,309.751 410.405,308.751 411.405,308.751 411.405,307.752 412.406,307.752 412.406,306.751 414.405,306.751 414.405,305.752 416.405,305.752 416.405,304.752 417.405,304.752 417.405,303.751 419.405,303.751 419.405,302.752 421.406,302.752 421.406,301.752 424.406,301.752 424.406,300.75 425.406,300.75 425.406,299.752 429.405,299.752 429.405,298.752 430.406,298.752 430.406,299.752 434.406,299.752 434.406,298.752 436.406,298.752 436.406,299.752 442.406,299.752 442.406,300.75 447.405,300.75 447.405,301.752 451.406,301.752 451.406,302.752 453.405,302.752 453.405,303.751 455.405,303.751 455.405,304.752 456.405,304.752 456.405,305.752 457.406,305.752 457.406,306.751 460.406,306.751 460.406,307.752 463.406,307.752 463.406,308.751 465.405,308.751 465.405,309.751 467.406,309.751 467.406,310.752 468.405,310.752 468.405,311.751 471.405,311.751 471.405,312.751 472.406,312.751 472.406,313.752 474.405,313.752 474.405,314.751 490.406,314.751 490.406,315.752 492.405,315.752 492.405,316.752 499.406,316.752 499.406,315.752 502.406,315.752 502.406,312.751 503.405,312.751 503.405,311.751 504.405,311.751 504.405,308.751 505.406,308.751 505.406,306.751 506.405,306.751 506.405,304.752 507.405,304.752 507.405,303.751 508.406,303.751 508.406,299.752 509.405,299.752 509.405,296.752 510.405,296.752 510.405,295.752 511.406,295.752 511.406,292.752 512.405,292.752 512.405,291.75 513.405,291.75 513.405,290.752 512.405,290.752 512.405,286.75 513.405,286.75 513.405,285.751 514.406,285.751 514.406,281.752 516.405,281.752 516.405,279.752 517.406,279.752 517.406,277.75 518.406,277.75 518.406,276.752 519.405,276.752 519.405,274.752 520.406,274.752 520.406,273.752 521.406,273.752 521.406,272.751 522.405,272.751 522.405,270.752 523.406,270.752 523.406,269.751 524.406,269.751 524.406,266.751 523.406,266.751 523.406,265.752 524.406,265.752 524.406,263.751 523.406,263.751 523.406,259.752 522.405,259.752 522.405,258.751 521.406,258.751 521.406,257.752 520.406,257.752 520.406,256.752 519.405,256.752 519.405,255.75 518.406,255.75 518.406,254.752 517.406,254.752 517.406,252.75 516.405,252.75 516.405,250.752 515.406,250.752 515.406,249.75 514.406,249.75 514.406,247.752 513.405,247.752 513.405,246.75 512.405,246.75 512.405,244.752 511.406,244.752 511.406,240.751 510.405,240.751 510.405,238.75 509.405,238.75 509.405,231.752 508.406,231.752 508.406,229.752 507.405,229.752 507.405,225.752 506.405,225.752 506.405,223.752 505.406,223.752 505.406,222.751 504.405,222.751 504.405,219.751 503.405,219.751 503.405,217.752 502.406,217.752 502.406,214.752 501.405,214.752 501.405,213.751 500.405,213.751 500.405,211.752 499.406,211.752 499.406,210.75 498.405,210.75 498.405,209.752 497.405,209.752 497.405,208.752 493.406,208.752 "/>
   <polygon id="m_910168" class="fil" lc="350,430" points="429.405,302.752 426.405,302.752 426.405,303.751 425.406,303.751 425.406,304.752 422.406,304.752 422.406,305.752 420.405,305.752 420.405,306.751 418.406,306.751 418.406,307.752 417.405,307.752 417.405,308.751 415.406,308.751 415.406,309.751 414.405,309.751 414.405,310.752 413.405,310.752 413.405,311.751 412.406,311.751 412.406,312.751 410.405,312.751 410.405,313.752 409.406,313.752 409.406,314.751 408.405,314.751 408.405,315.752 407.405,315.752 407.405,316.752 405.405,316.752 405.405,318.752 404.405,318.752 404.405,319.752 403.406,319.752 403.406,320.752 402.405,320.752 402.405,321.752 401.405,321.752 401.405,322.75 400.406,322.75 400.406,323.752 397.406,323.752 397.406,324.752 391.406,324.752 391.406,325.75 376.406,325.75 376.406,324.752 371.405,324.752 371.405,325.75 364.406,325.75 364.406,324.752 362.405,324.752 362.405,323.752 361.406,323.752 361.406,322.75 359.405,322.75 359.405,321.752 357.405,321.752 357.405,320.752 355.406,320.752 355.406,319.752 353.405,319.752 353.405,329.752 352.406,329.752 352.406,330.751 353.405,330.751 353.405,332.752 354.405,332.752 354.405,334.752 356.405,334.752 356.405,335.752 359.405,335.752 359.405,336.75 360.405,336.75 360.405,337.752 362.405,337.752 362.405,338.752 364.406,338.752 364.406,339.75 365.405,339.75 365.405,340.752 367.406,340.752 367.406,341.752 368.405,341.752 368.405,342.75 370.406,342.75 370.406,343.752 371.405,343.752 371.405,344.752 372.405,344.752 372.405,346.752 373.406,346.752 373.406,347.752 374.406,347.752 374.406,349.752 375.405,349.752 375.405,353.752 376.406,353.752 376.406,357.751 377.406,357.751 377.406,360.751 378.405,360.751 378.405,363.752 379.406,363.752 379.406,366.752 380.406,366.752 380.406,369.751 381.405,369.751 381.405,370.75 382.406,370.75 382.406,371.751 383.406,371.751 383.406,373.75 384.405,373.75 384.405,376.75 385.406,376.75 385.406,378.751 386.406,378.751 386.406,379.752 387.405,379.752 387.405,380.752 388.406,380.752 388.406,382.752 389.406,382.752 389.406,383.752 390.405,383.752 390.405,384.75 391.406,384.75 391.406,385.752 393.405,385.752 393.405,387.75 394.406,387.75 394.406,388.752 395.406,388.752 395.406,389.752 396.405,389.752 396.405,391.752 397.406,391.752 397.406,393.751 398.405,393.751 398.405,394.752 399.405,394.752 399.405,395.752 411.405,395.752 411.405,396.751 412.406,396.751 412.406,397.752 413.405,397.752 413.405,398.752 415.406,398.752 415.406,399.751 416.405,399.751 416.405,400.752 417.405,400.752 417.405,401.751 419.405,401.751 419.405,402.751 420.405,402.751 420.405,403.752 422.406,403.752 422.406,404.751 423.405,404.751 423.405,405.751 424.406,405.751 424.406,406.752 431.406,406.752 431.406,407.751 450.405,407.751 450.405,406.752 452.405,406.752 452.405,405.751 453.405,405.751 453.405,404.751 456.405,404.751 456.405,403.752 457.406,403.752 457.406,402.751 486.405,402.751 486.405,401.751 487.406,401.751 487.406,400.752 490.406,400.752 490.406,399.751 492.405,399.751 492.405,398.752 495.405,398.752 495.405,397.752 502.406,397.752 502.406,396.751 503.405,396.751 503.405,395.752 508.406,395.752 508.406,396.751 514.406,396.751 514.406,397.752 527.406,397.752 527.406,396.751 528.405,396.751 528.405,395.752 529.406,395.752 529.406,394.752 530.406,394.752 530.406,393.751 532.406,393.751 532.406,392.752 533.406,392.752 533.406,391.752 534.405,391.752 534.405,390.75 535.406,390.75 535.406,389.752 536.406,389.752 536.406,388.752 537.405,388.752 537.405,387.75 538.406,387.75 538.406,385.752 539.405,385.752 539.405,384.75 541.406,384.75 541.406,382.752 542.405,382.752 542.405,381.751 544.406,381.751 544.406,380.752 545.405,380.752 545.405,378.751 544.406,378.751 544.406,377.752 543.405,377.752 543.405,376.75 541.406,376.75 541.406,375.751 539.405,375.751 539.405,374.751 538.406,374.751 538.406,373.75 531.405,373.75 531.405,372.751 524.406,372.751 524.406,371.751 522.405,371.751 522.405,370.75 521.406,370.75 521.406,369.751 519.405,369.751 519.405,368.752 518.406,368.752 518.406,367.752 517.406,367.752 517.406,366.752 511.406,366.752 511.406,367.752 509.405,367.752 509.405,368.752 507.405,368.752 507.405,369.751 504.405,369.751 504.405,370.75 503.405,370.75 503.405,371.751 502.406,371.751 502.406,372.751 485.406,372.751 485.406,371.751 478.406,371.751 478.406,370.75 477.405,370.75 477.405,369.751 476.406,369.751 476.406,368.752 474.405,368.752 474.405,367.752 473.406,367.752 473.406,366.752 472.406,366.752 472.406,365.751 470.406,365.751 470.406,364.752 469.406,364.752 469.406,363.752 467.406,363.752 467.406,361.752 463.406,361.752 463.406,360.751 462.405,360.751 462.405,353.752 463.406,353.752 463.406,352.752 464.405,352.752 464.405,350.752 465.405,350.752 465.405,349.752 466.406,349.752 466.406,347.752 467.406,347.752 467.406,346.752 468.405,346.752 468.405,345.75 470.406,345.75 470.406,344.752 471.405,344.752 471.405,343.752 473.406,343.752 473.406,342.75 474.405,342.75 474.405,341.752 475.406,341.752 475.406,340.752 477.405,340.752 477.405,339.75 478.406,339.75 478.406,338.752 479.406,338.752 479.406,337.752 481.406,337.752 481.406,336.75 483.405,336.75 483.405,335.752 484.406,335.752 484.406,334.752 485.406,334.752 485.406,333.751 486.405,333.751 486.405,332.752 487.406,332.752 487.406,331.75 488.406,331.75 488.406,330.751 489.405,330.751 489.405,329.752 490.406,329.752 490.406,328.75 491.406,328.75 491.406,327.751 492.405,327.751 492.405,326.751 493.406,326.751 493.406,325.75 494.405,325.75 494.405,324.752 496.406,324.752 496.406,323.752 497.405,323.752 497.405,320.752 495.405,320.752 495.405,319.752 490.406,319.752 490.406,318.752 489.405,318.752 489.405,317.751 473.406,317.751 473.406,316.752 471.405,316.752 471.405,315.752 470.406,315.752 470.406,314.751 467.406,314.751 467.406,313.752 466.406,313.752 466.406,312.751 464.405,312.751 464.405,311.751 463.406,311.751 463.406,310.752 460.406,310.752 460.406,309.751 455.405,309.751 455.405,307.752 454.406,307.752 454.406,306.751 452.405,306.751 452.405,305.752 450.405,305.752 450.405,304.752 444.405,304.752 444.405,303.751 441.405,303.751 441.405,302.752 430.406,302.752 430.406,301.752 429.405,301.752 "/>
   <polygon id="m_910143" class="fil" lc="185,420" points="416.405,140.752 411.405,140.752 411.405,141.752 408.405,141.752 408.405,142.75 404.405,142.75 404.405,143.752 396.405,143.752 396.405,144.752 393.405,144.752 393.405,145.75 390.405,145.75 390.405,146.752 388.406,146.752 388.406,147.752 386.406,147.752 386.406,148.75 379.406,148.75 379.406,149.752 376.406,149.752 376.406,150.752 373.406,150.752 373.406,151.75 371.405,151.75 371.405,152.752 370.406,152.752 370.406,153.751 368.405,153.751 368.405,154.752 367.406,154.752 367.406,155.752 366.405,155.752 366.405,156.75 365.405,156.75 365.405,157.752 363.405,157.752 363.405,160.752 362.405,160.752 362.405,162.75 363.405,162.75 363.405,167.752 364.406,167.752 364.406,179.751 365.405,179.751 365.405,181.752 366.405,181.752 366.405,189.752 367.406,189.752 367.406,191.752 368.405,191.752 368.405,193.75 369.405,193.75 369.405,195.751 370.406,195.751 370.406,198.751 371.405,198.751 371.405,210.75 372.405,210.75 372.405,212.752 373.406,212.752 373.406,215.752 374.406,215.752 374.406,218.751 375.405,218.751 375.405,220.752 376.406,220.752 376.406,222.751 377.406,222.751 377.406,238.75 376.406,238.75 376.406,240.751 375.405,240.751 375.405,241.75 374.406,241.75 374.406,243.751 373.406,243.751 373.406,244.752 372.405,244.752 372.405,245.752 371.405,245.752 371.405,248.752 370.406,248.752 370.406,249.75 369.405,249.75 369.405,250.752 368.405,250.752 368.405,253.752 374.406,253.752 374.406,252.75 377.406,252.75 377.406,251.752 380.406,251.752 380.406,250.752 382.406,250.752 382.406,249.75 383.406,249.75 383.406,248.752 386.406,248.752 386.406,247.752 387.405,247.752 387.405,246.75 389.406,246.75 389.406,245.752 390.405,245.752 390.405,244.752 391.406,244.752 391.406,243.751 392.406,243.751 392.406,242.752 393.405,242.752 393.405,241.75 394.406,241.75 394.406,240.751 395.406,240.751 395.406,239.752 397.406,239.752 397.406,238.75 400.406,238.75 400.406,237.752 403.406,237.752 403.406,236.752 405.405,236.752 405.405,235.75 407.405,235.75 407.405,234.752 415.406,234.752 415.406,233.752 419.405,233.752 419.405,232.75 431.406,232.75 431.406,233.752 433.406,233.752 433.406,234.752 436.406,234.752 436.406,233.752 437.406,233.752 437.406,234.752 445.406,234.752 445.406,233.752 447.405,233.752 447.405,234.752 454.406,234.752 454.406,233.752 459.405,233.752 459.405,232.75 460.406,232.75 460.406,231.752 465.405,231.752 465.405,230.752 469.406,230.752 469.406,229.752 470.406,229.752 470.406,228.752 471.405,228.752 471.405,227.751 472.406,227.751 472.406,226.752 473.406,226.752 473.406,224.751 474.405,224.751 474.405,223.752 475.406,223.752 475.406,220.752 476.406,220.752 476.406,214.752 477.405,214.752 477.405,213.751 478.406,213.751 478.406,212.752 480.405,212.752 480.405,211.752 482.406,211.752 482.406,210.75 483.405,210.75 483.405,209.752 485.406,209.752 485.406,208.752 487.406,208.752 487.406,207.75 490.406,207.75 490.406,206.752 492.405,206.752 492.405,205.752 493.406,205.752 493.406,204.75 492.405,204.75 492.405,203.752 491.406,203.752 491.406,201.75 490.406,201.75 490.406,200.752 489.405,200.752 489.405,199.752 488.406,199.752 488.406,197.752 487.406,197.752 487.406,192.752 486.405,192.752 486.405,191.752 485.406,191.752 485.406,188.752 484.406,188.752 484.406,180.752 483.405,180.752 483.405,168.751 482.406,168.751 482.406,166.752 481.406,166.752 481.406,165.75 480.405,165.75 480.405,164.752 478.406,164.752 478.406,163.752 476.406,163.752 476.406,162.75 475.406,162.75 475.406,161.752 472.406,161.752 472.406,160.752 470.406,160.752 470.406,159.75 468.405,159.75 468.405,158.752 467.406,158.752 467.406,157.752 466.406,157.752 466.406,156.75 462.405,156.75 462.405,155.752 461.405,155.752 461.405,154.752 460.406,154.752 460.406,153.751 458.405,153.751 458.405,152.752 457.406,152.752 457.406,151.75 454.406,151.75 454.406,150.752 452.405,150.752 452.405,149.752 451.406,149.752 451.406,148.75 450.405,148.75 450.405,147.752 448.406,147.752 448.406,146.752 445.406,146.752 445.406,145.75 443.406,145.75 443.406,144.752 441.405,144.752 441.405,143.752 436.406,143.752 436.406,142.75 433.406,142.75 433.406,141.752 431.406,141.752 431.406,140.752 428.406,140.752 428.406,139.752 416.405,139.752 "/>
</svg>